<mxfile host="Electron" modified="2024-04-11T03:46:46.847Z" agent="Mozilla/5.0 (Windows NT 10.0; Win64; x64) AppleWebKit/537.36 (KHTML, like Gecko) draw.io/22.1.2 Chrome/114.0.5735.289 Electron/25.9.4 Safari/537.36" etag="WADCCwm6zLODy8eL2u06" version="22.1.2" type="device">
  <diagram name="PÃ¡gina-1" id="3AgcrIrzKAdxoK2-tSog">
    <mxGraphModel dx="2126" dy="607" grid="1" gridSize="10" guides="1" tooltips="1" connect="1" arrows="1" fold="1" page="1" pageScale="1" pageWidth="827" pageHeight="1169" math="0" shadow="0">
      <root>
        <mxCell id="0" />
        <mxCell id="1" parent="0" />
        <mxCell id="Lu9yphzNMlrqCygTWZGL-30" value="OSC_R&lt;br&gt;@ [50MHz - 200MHz]" style="endArrow=none;html=1;rounded=0;entryX=0;entryY=0.5;entryDx=0;entryDy=0;" parent="1" target="Lu9yphzNMlrqCygTWZGL-26" edge="1">
          <mxGeometry x="-0.8182" y="20" width="50" height="50" relative="1" as="geometry">
            <mxPoint x="384" y="130" as="sourcePoint" />
            <mxPoint x="474" y="20" as="targetPoint" />
            <mxPoint as="offset" />
          </mxGeometry>
        </mxCell>
        <mxCell id="Lu9yphzNMlrqCygTWZGL-24" value="" style="rounded=0;whiteSpace=wrap;html=1;" parent="1" vertex="1">
          <mxGeometry x="60" y="240" width="390" height="240" as="geometry" />
        </mxCell>
        <mxCell id="Lu9yphzNMlrqCygTWZGL-2" value="START" style="swimlane;fontStyle=0;childLayout=stackLayout;horizontal=1;startSize=30;horizontalStack=0;resizeParent=1;resizeParentMax=0;resizeLast=0;collapsible=1;marginBottom=0;whiteSpace=wrap;html=1;" parent="1" vertex="1">
          <mxGeometry x="110" y="320" width="80" height="120" as="geometry" />
        </mxCell>
        <mxCell id="Lu9yphzNMlrqCygTWZGL-3" value="sum=0" style="text;strokeColor=none;fillColor=none;align=left;verticalAlign=middle;spacingLeft=4;spacingRight=4;overflow=hidden;points=[[0,0.5],[1,0.5]];portConstraint=eastwest;rotatable=0;whiteSpace=wrap;html=1;" parent="Lu9yphzNMlrqCygTWZGL-2" vertex="1">
          <mxGeometry y="30" width="80" height="30" as="geometry" />
        </mxCell>
        <mxCell id="Lu9yphzNMlrqCygTWZGL-4" value="count=0" style="text;strokeColor=none;fillColor=none;align=left;verticalAlign=middle;spacingLeft=4;spacingRight=4;overflow=hidden;points=[[0,0.5],[1,0.5]];portConstraint=eastwest;rotatable=0;whiteSpace=wrap;html=1;" parent="Lu9yphzNMlrqCygTWZGL-2" vertex="1">
          <mxGeometry y="60" width="80" height="30" as="geometry" />
        </mxCell>
        <mxCell id="gVtXrnHKsEPrwx9l8qOF-1" value="ready=0" style="text;strokeColor=none;fillColor=none;align=left;verticalAlign=middle;spacingLeft=4;spacingRight=4;overflow=hidden;points=[[0,0.5],[1,0.5]];portConstraint=eastwest;rotatable=0;whiteSpace=wrap;html=1;" vertex="1" parent="Lu9yphzNMlrqCygTWZGL-2">
          <mxGeometry y="90" width="80" height="30" as="geometry" />
        </mxCell>
        <mxCell id="Lu9yphzNMlrqCygTWZGL-6" value="ADD" style="swimlane;fontStyle=0;childLayout=stackLayout;horizontal=1;startSize=30;horizontalStack=0;resizeParent=1;resizeParentMax=0;resizeLast=0;collapsible=1;marginBottom=0;whiteSpace=wrap;html=1;" parent="1" vertex="1">
          <mxGeometry x="210" y="320" width="80" height="120" as="geometry" />
        </mxCell>
        <mxCell id="Lu9yphzNMlrqCygTWZGL-7" value="sum+=dout" style="text;strokeColor=none;fillColor=none;align=left;verticalAlign=middle;spacingLeft=4;spacingRight=4;overflow=hidden;points=[[0,0.5],[1,0.5]];portConstraint=eastwest;rotatable=0;whiteSpace=wrap;html=1;" parent="Lu9yphzNMlrqCygTWZGL-6" vertex="1">
          <mxGeometry y="30" width="80" height="30" as="geometry" />
        </mxCell>
        <mxCell id="Lu9yphzNMlrqCygTWZGL-8" value="count+=1" style="text;strokeColor=none;fillColor=none;align=left;verticalAlign=middle;spacingLeft=4;spacingRight=4;overflow=hidden;points=[[0,0.5],[1,0.5]];portConstraint=eastwest;rotatable=0;whiteSpace=wrap;html=1;" parent="Lu9yphzNMlrqCygTWZGL-6" vertex="1">
          <mxGeometry y="60" width="80" height="30" as="geometry" />
        </mxCell>
        <mxCell id="gVtXrnHKsEPrwx9l8qOF-2" value="ready=0" style="text;strokeColor=none;fillColor=none;align=left;verticalAlign=middle;spacingLeft=4;spacingRight=4;overflow=hidden;points=[[0,0.5],[1,0.5]];portConstraint=eastwest;rotatable=0;whiteSpace=wrap;html=1;" vertex="1" parent="Lu9yphzNMlrqCygTWZGL-6">
          <mxGeometry y="90" width="80" height="30" as="geometry" />
        </mxCell>
        <mxCell id="Lu9yphzNMlrqCygTWZGL-9" value="HOLD" style="swimlane;fontStyle=0;childLayout=stackLayout;horizontal=1;startSize=30;horizontalStack=0;resizeParent=1;resizeParentMax=0;resizeLast=0;collapsible=1;marginBottom=0;whiteSpace=wrap;html=1;" parent="1" vertex="1">
          <mxGeometry x="304" y="320" width="120" height="120" as="geometry" />
        </mxCell>
        <mxCell id="Lu9yphzNMlrqCygTWZGL-10" value="sum" style="text;strokeColor=none;fillColor=none;align=left;verticalAlign=middle;spacingLeft=4;spacingRight=4;overflow=hidden;points=[[0,0.5],[1,0.5]];portConstraint=eastwest;rotatable=0;whiteSpace=wrap;html=1;" parent="Lu9yphzNMlrqCygTWZGL-9" vertex="1">
          <mxGeometry y="30" width="120" height="30" as="geometry" />
        </mxCell>
        <mxCell id="Lu9yphzNMlrqCygTWZGL-11" value="count=max_count" style="text;strokeColor=none;fillColor=none;align=left;verticalAlign=middle;spacingLeft=4;spacingRight=4;overflow=hidden;points=[[0,0.5],[1,0.5]];portConstraint=eastwest;rotatable=0;whiteSpace=wrap;html=1;" parent="Lu9yphzNMlrqCygTWZGL-9" vertex="1">
          <mxGeometry y="60" width="120" height="30" as="geometry" />
        </mxCell>
        <mxCell id="gVtXrnHKsEPrwx9l8qOF-3" value="ready=1" style="text;strokeColor=none;fillColor=none;align=left;verticalAlign=middle;spacingLeft=4;spacingRight=4;overflow=hidden;points=[[0,0.5],[1,0.5]];portConstraint=eastwest;rotatable=0;whiteSpace=wrap;html=1;" vertex="1" parent="Lu9yphzNMlrqCygTWZGL-9">
          <mxGeometry y="90" width="120" height="30" as="geometry" />
        </mxCell>
        <mxCell id="Lu9yphzNMlrqCygTWZGL-12" value="enable=1" style="curved=1;endArrow=classic;html=1;rounded=0;" parent="1" source="Lu9yphzNMlrqCygTWZGL-2" target="Lu9yphzNMlrqCygTWZGL-6" edge="1">
          <mxGeometry x="0.2269" y="-6" width="50" height="50" relative="1" as="geometry">
            <mxPoint x="550" y="420" as="sourcePoint" />
            <mxPoint x="600" y="370" as="targetPoint" />
            <Array as="points">
              <mxPoint x="190" y="280" />
            </Array>
            <mxPoint as="offset" />
          </mxGeometry>
        </mxCell>
        <mxCell id="Lu9yphzNMlrqCygTWZGL-15" value="count&amp;gt;=max_count" style="curved=1;endArrow=classic;html=1;rounded=0;" parent="1" source="Lu9yphzNMlrqCygTWZGL-6" target="Lu9yphzNMlrqCygTWZGL-9" edge="1">
          <mxGeometry x="-0.2167" y="-5" width="50" height="50" relative="1" as="geometry">
            <mxPoint x="390" y="320" as="sourcePoint" />
            <mxPoint x="590" y="320" as="targetPoint" />
            <Array as="points">
              <mxPoint x="300" y="280" />
            </Array>
            <mxPoint as="offset" />
          </mxGeometry>
        </mxCell>
        <mxCell id="Lu9yphzNMlrqCygTWZGL-17" value="else" style="curved=1;endArrow=classic;html=1;rounded=0;" parent="1" source="Lu9yphzNMlrqCygTWZGL-6" target="Lu9yphzNMlrqCygTWZGL-6" edge="1">
          <mxGeometry x="0.3057" y="-3" width="50" height="50" relative="1" as="geometry">
            <mxPoint x="409" y="420" as="sourcePoint" />
            <mxPoint x="340" y="420" as="targetPoint" />
            <Array as="points">
              <mxPoint x="260" y="460" />
            </Array>
            <mxPoint as="offset" />
          </mxGeometry>
        </mxCell>
        <mxCell id="Lu9yphzNMlrqCygTWZGL-18" value="" style="curved=1;endArrow=classic;html=1;rounded=0;" parent="1" source="Lu9yphzNMlrqCygTWZGL-9" target="Lu9yphzNMlrqCygTWZGL-9" edge="1">
          <mxGeometry x="0.3057" y="-3" width="50" height="50" relative="1" as="geometry">
            <mxPoint x="614.5" y="420" as="sourcePoint" />
            <mxPoint x="545.5" y="420" as="targetPoint" />
            <Array as="points">
              <mxPoint x="360" y="460" />
            </Array>
            <mxPoint as="offset" />
          </mxGeometry>
        </mxCell>
        <mxCell id="Lu9yphzNMlrqCygTWZGL-20" value="" style="curved=1;endArrow=classic;html=1;rounded=0;" parent="1" source="Lu9yphzNMlrqCygTWZGL-19" target="Lu9yphzNMlrqCygTWZGL-2" edge="1">
          <mxGeometry width="50" height="50" relative="1" as="geometry">
            <mxPoint x="100" y="280" as="sourcePoint" />
            <mxPoint x="440" y="240" as="targetPoint" />
            <Array as="points">
              <mxPoint x="130" y="290" />
            </Array>
          </mxGeometry>
        </mxCell>
        <mxCell id="Lu9yphzNMlrqCygTWZGL-21" value="rst" style="text;html=1;align=center;verticalAlign=middle;resizable=0;points=[];autosize=1;strokeColor=none;fillColor=none;" parent="1" vertex="1">
          <mxGeometry x="90" y="245" width="40" height="30" as="geometry" />
        </mxCell>
        <mxCell id="Lu9yphzNMlrqCygTWZGL-16" value="else" style="curved=1;endArrow=classic;html=1;rounded=0;" parent="1" source="Lu9yphzNMlrqCygTWZGL-2" target="Lu9yphzNMlrqCygTWZGL-2" edge="1">
          <mxGeometry x="0.3057" y="-3" width="50" height="50" relative="1" as="geometry">
            <mxPoint x="550" y="420" as="sourcePoint" />
            <mxPoint x="140" y="410" as="targetPoint" />
            <Array as="points">
              <mxPoint x="170" y="450" />
            </Array>
            <mxPoint as="offset" />
          </mxGeometry>
        </mxCell>
        <mxCell id="Lu9yphzNMlrqCygTWZGL-19" value="" style="shape=waypoint;sketch=0;fillStyle=solid;size=6;pointerEvents=1;points=[];fillColor=none;resizable=0;rotatable=0;perimeter=centerPerimeter;snapToPoint=1;" parent="1" vertex="1">
          <mxGeometry x="90" y="260" width="20" height="20" as="geometry" />
        </mxCell>
        <mxCell id="Lu9yphzNMlrqCygTWZGL-26" value="" style="triangle;whiteSpace=wrap;html=1;rotation=90;" parent="1" vertex="1">
          <mxGeometry x="366" y="238" width="36" height="40" as="geometry" />
        </mxCell>
        <mxCell id="Lu9yphzNMlrqCygTWZGL-28" value="DIV" style="whiteSpace=wrap;html=1;aspect=fixed;" parent="1" vertex="1">
          <mxGeometry x="384" y="180" width="40" height="40" as="geometry" />
        </mxCell>
        <mxCell id="Lu9yphzNMlrqCygTWZGL-31" value="DOUT" style="endArrow=none;html=1;rounded=0;entryX=0;entryY=0.5;entryDx=0;entryDy=0;" parent="1" edge="1" source="gVtXrnHKsEPrwx9l8qOF-12">
          <mxGeometry x="-1" y="91" width="50" height="50" relative="1" as="geometry">
            <mxPoint x="-40" y="300" as="sourcePoint" />
            <mxPoint x="60" y="300" as="targetPoint" />
            <mxPoint x="-90" y="81" as="offset" />
          </mxGeometry>
        </mxCell>
        <mxCell id="Lu9yphzNMlrqCygTWZGL-34" value="CLK @ 50MHz" style="endArrow=none;html=1;rounded=0;entryX=0;entryY=0.5;entryDx=0;entryDy=0;" parent="1" target="Lu9yphzNMlrqCygTWZGL-36" edge="1">
          <mxGeometry x="-0.8182" y="10" width="50" height="50" relative="1" as="geometry">
            <mxPoint x="640" y="170" as="sourcePoint" />
            <mxPoint x="676" y="50" as="targetPoint" />
            <mxPoint as="offset" />
          </mxGeometry>
        </mxCell>
        <mxCell id="Lu9yphzNMlrqCygTWZGL-37" value="" style="endArrow=none;html=1;rounded=0;exitX=1;exitY=0.5;exitDx=0;exitDy=0;" parent="1" edge="1">
          <mxGeometry x="-0.8182" y="10" width="50" height="50" relative="1" as="geometry">
            <mxPoint x="450" y="470" as="sourcePoint" />
            <mxPoint x="600" y="470" as="targetPoint" />
            <mxPoint as="offset" />
          </mxGeometry>
        </mxCell>
        <mxCell id="Lu9yphzNMlrqCygTWZGL-35" value="" style="rounded=0;whiteSpace=wrap;html=1;" parent="1" vertex="1">
          <mxGeometry x="600" y="220" width="310" height="290" as="geometry" />
        </mxCell>
        <mxCell id="Lu9yphzNMlrqCygTWZGL-36" value="" style="triangle;whiteSpace=wrap;html=1;rotation=90;" parent="1" vertex="1">
          <mxGeometry x="620" y="220" width="40" height="40" as="geometry" />
        </mxCell>
        <mxCell id="Lu9yphzNMlrqCygTWZGL-32" value="CDC-FIFO" style="whiteSpace=wrap;html=1;aspect=fixed;fillColor=#FFFFFF;" parent="1" vertex="1">
          <mxGeometry x="490" y="440" width="60" height="60" as="geometry" />
        </mxCell>
        <mxCell id="Lu9yphzNMlrqCygTWZGL-38" value="" style="shape=image;verticalLabelPosition=bottom;labelBackgroundColor=default;verticalAlign=top;aspect=fixed;imageAspect=0;image=data:image/png,iVBORw0KGgoAAAANSUhEUgAAAqEAAAKICAYAAABAASOgAAAAAXNSR0IArs4c6QAAAARnQU1BAACxjwv8YQUAAAAJcEhZcwAADsMAAA7DAcdvqGQAAMV4SURBVHhe7N0FmFRVGwfwAwJKpzRIdyMiLUh3h9KIkiIGICBKC3yUdHeoSHdJI90lISnS0iXc7/7fPXeYXWa77sz8f89z2bnn3llmZ2dn3vuec94TxTApIiIiIqIIFFV/JSIiIiKKMAxCiYiIiCjCMQglIiIiogjHIJSIiIiIIhyDUCIiIiKKcAxCiYiIiCjCMQglIiIiogjHIJSIiIiIIhyDUCIiIiKKcAxCiYiIiCjCMQglIiIiogjHIJSIiIiIIhyDUCIiIiKKcAxCiYiIiCjCMQglIiIiogjHIJSIiIiIIhyDUCIiIiKKcAxCiYiIiCjCMQglIiIiogjHIJSIiIiIIhyDUCIiIiKKcAxCiYiIiCjCMQglIiIiogjHIJSIiIiIIlwUw6RvExGRjTx69EjdvHlT/ffff+rx48cqZsyYKlasWCpRokQqRowY+iwiIvfEIJSIKJLduHFDbd68WR08eFAdP35cnT59Wp09e1YCT1eiRo0qgWj69OlVlixZVOHChWXLnz+/ih49uj6LiMjeGIQSEUUwvO3u2rVL/fzzz2r9+vXq6NGj6s0331S5cuVSuXPnVpkzZ1YZM2ZUqVKlkuxn/PjxJfB8+fKlunXrlrp9+7Y6d+6c+ueff9SRI0fUnj171N9//63eeustVaRIEVWzZk1Vt25dlTJlSv0/EhHZD4NQIqIIcu3aNTV+/Hg1ffp0df78eZUjRw5VuXJlVaFCBVWsWDEJOEPqwoULauvWrWr16tVqxYoV6v79+6pUqVKqbdu2qlatWuqNN97QZxIR2QODUCKicPbnn3+qIUOGqFmzZqnEiROrzz77TH388ceS7QwPz58/V+vWrVPTpk1TS5YsUcmTJ1eff/65atOmjYoTJ44+i4gocjEIJSIKJ5hU1KtXLzVx4kTpav/mm29UvXr1InRSEbrpf/rpJzV69GiVIEEC1a9fP9W0aVPp3iciikwMQomIwhhms48dO1YCUGQhe/fuLcFnZAZ+CIj79+8vwwHy5MkjXzGRiYgosvBSmIgomL766iv1119/6T3fMNazZMmSqkuXLurbb7+VSUcNGjSI9MxjkiRJ1PDhw9WxY8fkdqFChSRIRsBMRBQZmAklIgoGzFBPmDChlEL67bffZPKPZfny5TLWE2WT5syZI1/tCpOjvvjiC5UpUya1aNEilSZNGn2EiChiMBNKRBQMyGzeu3dPSiWVLVtWTZgwQUouIetZvXp11apVK7Vt2zZbB6DQvHlzqUuaIUMG9cknn6jDhw/rI0REEYOZUCKiYEDQiVnmzrJnz67OnDkj2U+M/SQiosAxE0pEFAzIcvp14sQJqflZunRp3UJERIFhEEpEtvHs2TN1584dX9vTp0/1UXvYuXOnvuXboUOH1HvvvSfd9aHx77//qitXrug93/D8XL58WeqAegqUkNq4caP8XETkXdgdT0ThAoESlpZEoXasjY7bWG4SQQfKBeH2o0eP1N27d9WDBw8CnaUdO3Zsx4Z6lyj6jg1LU6ZIkUIlTZpUJtmkTp1a2sJjDXWseISSSwHB40O3fI0aNXRL8LRv317KO82fP19m1TtDFrZEiRLqwIEDKl++fLo1ePAzjBw5Ug0YMEC3RJ4RI0aozp07qyhRoqi+ffuqHj166CNE5A0YhBJRqGCCDrKACDbxFQGSFXC+ePFCzkmWLJnMvraCxkSJEkmZIHyNFSuWrJseN25cFS1aNDkfa6A/efJEbgMCVCxDiYAVgSv+T2sN9atXr6rr169LJg0ThgDfJ126dLIGe7Zs2aRQfMGCBaXLPDTBKWaR165dW+/5D4Holi1bVIECBXRL0FlBKJ6b48ePy3NnCYsg9Pvvv5eZ8VjmM7Lhd4MNATdeAwhGich7MAgloiBDMIgAaPv27RJk7du3T128eFGOpUqVSmaEY8uaNasEF/j6zjvvRNi65QhSEQwj24evp06dUkeOHJFZ4I8fP5bgFo+rcOHCqnjx4ur9999X6dOnD/Ljw4pH//vf//Te6xAwduzYUZblRJAdEghCUfoJzzUCTgS+Fv+CUHTTY2IUAteAMrU4D0EoMrUIcHEBAHhuEDgjMMX9ERACPh4Q3OMCALPo8fxZkOnGY8R69ziO8xD0WxcSFhxDTVVcfFjPCb7vw4cP5Xt26tRJNuflRHEBcvbsWZU2bVq5OLGgPJZ/j5WI3BCCUCIiV8wgw9i8ebPRu3dvo0yZMoYZKOCi1TADTqNhw4bGyJEjjd9//90wAw19D3sygxfDDISMX3/91ejRo4fx4YcfOn6WxIkTG40aNTLGjRtnnDx5Ut/DtSJFish9/G65c+c2pk+fbpjBkz4z5Nq1a2eYgbwxb948+d5z587VRwxj69at0mYGobrFMIYNG2aYQZlhBohy7N133zXMAFMf9a1Xr16Ox4wN3w9b1KhRDTPAljYzUJSfY/bs2YYZ1BpmoGqYgZ6c89VXX+nvZBgDBw40zEBeHq8ZxMt9EyRIYKxYsUKfYRj9+/c3YsSIYSRMmFCOFyhQwDAvDoxLly45HoO1mUGt8fTpU6Nz587yf8WLF8+IEiWK0bx5c+PBgwfy/fx7rETknhiEEpEv165dM6ZOnWrUrl1bggp82GfKlEmCjcWLFxu3bt3SZ7o/BJ2TJ082GjRo4AiUMmbMKD8rgutnz57pMw0JdhCMWUETtooVKxrr1q3TZ4QNKwgF/A7wuP755x/Z9xuELlq0SPYRAL948cK4ceOGBNj4GfwLzhCIpk2bVu+9+p558+Y11qxZY6xcudI4e/asBIATJkyQc/C9u3XrJucdPHhQ2hCEYr9JkybG3bt3jevXr0tQ+s4778hxfA8cx2sGLl++bGTOnFmea0vSpEnl+1hwsYPX3M6dO2Ufv58MGTIYn3/+uey7eqxE5L4YhBKRBJYIOBDAINOELGGdOnUkGL1y5Yo+y7Mh0EJwN2DAAAmmrOfh448/NpYsWSJBKQIgBKKtW7c2jh07pu8ZtpyDUAR2yNTWqFFD9v0GoaVKlTJq1aolty0XLlyQc3755Rfd4pt/QeiCBQt0i8/3mDZtmt7zcerUKTkPzwVYQei9e/dkHyZNmiRtDx8+NI4ePSq3R4wYYTx69EiOIwNqBdTgNwiNHz++r33A44gWLZpkSV09ViJyXyzRROSlMKZv5cqVMosbYxmx4g/G6C1evFgm+pgf9KpFixYyls8bmEGnjLPE82AGOzKLHzPIMZ4Rz1GVKlVUkSJF5DmbOHGiTHIKb2+//bZMUjIDPzV37lzd+grGdWJ8qzOMo8Tv8+TJk7olaDBW1oLvUa5cOTVo0CBZhhTrzOfJk0eOYVymBY/PecymNeYTr62cOXPK2FgsDYplTsuXL69WrFght10xg1MZ02sGsjKJzNrMoFTGnjqv1e/8WInIfTEIJfIyly5dkkALwSWCK3zA//rrrxIEILiqVq2aTDbxdtYkI0zCwnPWu3dvKSX14YcfSnCEYAkz9cNb/fr1VZ06dVSHDh3kd+SX4WJuKX6nwYXJPhZM5MKksl9++UUCUkzIclWk379KA9ZjGj9+vATKffr0kUoJ7dq1UxUqVJBjflnBbcOGDeX1aW39+/eX1ycCXovzYyUi98UglMhLIJiqVauWzFbHhzo+4FEUHdmpmjVrhktdTU+B2qNff/21rK+OMlQIQr/88kt5LvH1/Pnz+szwMW7cOJnB/9VXX+kWH8gI+i2ej1nyKF+FKgWuIOMbGASPKKe1e/duyUQiEMbCAeCcCQ3I3r17JXhF7dYuXbqoDRs2qNGjR6tNmza5DKZxUYSsaowYMVTdunUdGzKnCIp5YUTkeRiEEnkwZKTQfYxyRNhQJH7p0qXq9OnTEjyhwDsFD7qlkTFGdhQF1vF8ItBq0qSJLN8ZHpAFRCBqlcOydO3aVf5/BI1YWQpli5o3b65y586tqlatqs/yDVlElLD6448/JLPrCgI+1F9F0I3XEL5a6+U/carfGhAEuyhn1atXL1msACWcNm/eLAG9c+1TZwhWcR9cGKFLH48RwwEwPIJBKJHnYRBK5KFWr14txdKrV68uXaqoLYkPcwQnLAoeeli1CYEZapGi7iYypAj+WrZsKdnIsGZlBp1hnOrUqVNVz549JUhDZjR+/PiyDKZ/XdYYgoF6ohjfunz5ct3qG7Lk+fPnl9cPvi+GaAwZMkS+P2rDBgXui8AZATIudrBYAbrm8br07/XXrVs3GUNar149qf+Jx4jvg8w9EXkeFqsn8jD79++XrmN0e6L7HZNLkKmj8IVuamQlf/jhBwm2MCkHheFDWrQ+uJBpRLCH7uygQPc6AumALkiQMcVHRGBLlQYEY0Ex7CNevHjy/wUFnktkmhEsO098IiLPwiCUyEOg+7R79+5qxowZqmTJkrIud0iXdqSQw1vqvHnzJKuH1YLQHY0JTn5XEiIi8nbsjidycwh60O2JrlLMYF64cKFkQRmARg5kFj/66CMpkYSMNLrKMZEJE3WIiOgVBqFEbgzrayPriVnTWH/72LFjMtOdIh/WZe/Ro4esYY/6q1inHkFpUCf2EBF5OgahRG5q1KhRUhAcmdAjR45ILcagjgekiJMqVSq1aNEi6aKfOXOmTLRx56wohhhgqAEqLBARhQaDUCI3gwklmOGMGoz9+vVTW7ZsURkzZtRHya4w4/vo0aMybAKzvocNGyYXEO4GE4VQQmnatGm6hYgoZBiEErkR1GtEJg1fUXMR3btBKT5O9oDZ67/99ptksVHjE4Eplqp0N8WKFVN79uzRe0REIcNPLyI3gbXD33vvPVmzHGWY/K4ZTu4BE5dQX3THjh3SLV+0aFG369rG6xCvQSKi0GAQSuQGUCgcK8dgRRkUGMdShuTeChUqpHbt2iXLY6J7HqsDuQvUnb19+7YsD0pEFFIMQolsDqvXYJb1pEmTZPIRVzvyHFi+ct26dapChQqqTJkyctsdYEIchPea+UTk2RiEEtkUJq2g23bo0KGybOEnn3yij5AnwfKUs2fPVs2aNZNlOJctW6aP2Bcy8dGjR2cQSkShwiCUyIYQgGLZR6wLjoksmA1PngvZ7bFjx6oOHTqoOnXq+Lumu11gMhyyuO44qYqI7INBKJENoQt++vTpauXKlapatWq6lTwZAlFkvVu0aKHq168v40XtLGbMmOrff//Ve0REwccglMhmkBHDRKQ5c+aosmXL6lbyBlZGFKteVa1aVZ05c0YfsR8MI3j27JneIyIKPgahRDayYcMG1bFjR6kjiRqS5H3eeOMNyYLnzp1bVaxYURYnICLyRFEMd1yyg8gDXbt2TeXPn19mSWOiirtYv369rF2PSTUDBgzQrUp9+OGH6ubNm3rPBwIsdOOmTZtWNW/eXGaFu1KwYEE5d/fu3brFfxiygOELQYHubnfJLiP4zJMnj8qXL59aunSp7aoiIEjG7xC/eyKikGAmlMgGXr58qRo1aiQ1IydOnKhb3QPGBWIFpwsXLugWH1iiEu2XLl1Sly9flu3s2bNq586dav78+ZLle//999Vff/2l7/HKwYMH1aFDh/RewFCvEv/PqVOnHP+Pf9vjx4/1vewPM9AxKW3NmjVSnstu7t27p2LFiqX3iIiCj0EokQ2MGTNGgrMFCxZ43Af7uXPnpKg5Nsymfv78uSz5iIwkJt+UK1dOAprQQokj6//xb3O3SV5Ymej777+XWfPHjx/XrfZw9epV9fbbb+s9IqLgYxBKFMmuXLmiunfvrnr16qWyZs2qWz0XutnfffddtWrVKlW8eHHJjqKbnFzr1q2bDE9AyS67jJ66f/++XEykSJFCtxARBR+DUKJI1qlTJxkj+fXXX+sW7xAtWjT1448/ym07djfbBYL2GTNmyLKec+fO1a2RCxcOgNctEVFIMQglikQ7duxQCxculCAMK9B4m2LFikk2DV27f/75p24lv7JkySKZ0J49e0oGMrJhvG78+PFVmjRpdAsRUfAxCCWKRF26dJEZ4kWLFtUt3scKZDCBKTQwzhRr7Pu3uXu2FWNDMQlrwoQJuiXyHDlyRBUoUEDvERGFDINQokiybds2tX37dvXDDz/oFu+EigAQ2slJBw4ckBJR/m2ovenOMAkIQzf69+8f6UXi8dotXLiw3iMiChkGoUSRBJNxypcv7/Uf5g8ePJCvqVKlkq8hhVWGUGHAv80Txp1+/vnnUhILQzgiC7KxyDp/8MEHuoWIKGQYhBJFAhRxX7ZsmWrTpo1u8V4o4QTp06eXryGVNGlSqTvq35YjRw59pvtKkiSJrKQ1fvx43RLx1q5dq2LEiKFKliypW4iIQoZBKFEkmDdvnkqQIIHb1a0MayhKjxJV6GpmzcmgadmypdqyZctriwNElOXLl6vSpUvLyldERKHBIJQoEqA7tUaNGlKmyJt9+eWX8hXdzBQ0yEAi67t48WLdEnEePXok/+9HH32kW4iIQo5BKFEEw5g+ZLLq1KmjW7wP1kVv166d+v3336WLGSsCUdBEjRpV1umPjCB0zpw5UjDfm1+7RBR2ophvKPZYgoPISyxatEjVrVtXVp3xhCU6sdQoxikiO4YgxZIsWTJ1/fp1ydxZGd///vtPAtCTJ09KvUsEoAhEc+XKJcctKNCOtyZ0+/pn2LBhKm/evGr27NmqSZMmKmXKlCpbtmz6qGuoS9qnTx+9575+/vln1bx5c3kNRVQ2Hb+PnDlzSkmx4cOH61YiopBjEEoUwbAM48qVK9Xhw4d1i3sLLAh1huASxelTp06tateurVq1aqUSJUqkj76C816+fKn3XEPwihnaVhAaFNWrV1dLlizRe+4L42jxHG7dulWWPo0IGAuK5+/06dMqY8aMupWIKOQYhBJFsIoVK0o5oilTpugWouDDRK5BgwbJRKWIgCwyAl9kYYmIwgLHhBJFMHRFc7UZCq3s2bNHWDYd40+xdn3v3r11CxFR6DEIJYpA6GK+fPmydEkThUbatGnltRTenj59qr766isZOhHYmFsiouBgEEoUgW7cuKFevHgh3ZpEoZE8eXJ5PYU3LBOKJVUHDx6sW4iIwgaDUKIIhKwSsNA3hRZmxeOCJjxhPf6BAwdKJQIsrkBEFJYYhBJFoIcPH8pXTyjNRJ7t7t27qlGjRlKSKajVB4iIgoNBKFE4QVH6bdu2yTrfKMxeqlQpVaRIETmGEkREdoWiKahD+uDBAzVt2jTdSkQUtliiiSiUHj9+rI4fP66OHj0qG2YsHzt2TGo5+oXyTKtXr5ZzcufOrVuJgg/1ZnGRgy2s4XujIP2uXbtUvnz5dCsRUdhiJpQoFFasWKHixImj3n33Xckc/e9//1Nr1651GYBGiRJF/fDDD3L75s2b8pUopJCljB07tt4LOyNGjFBDhgxR06dPZwBKROGKQShRKGANb6wUFBQNGjRQhQsXlvGgf//9t261N4xhxVKbZD+YsY4LoLA0c+ZM1blzZzV69GgZD0pEFJ7YHU8USgjUChYsqE6dOqVbXocxoOiiz5o1q9RaRM3Fb775Rh8Ne3g8zsEjsrB4DG+++aZKnDixFMtv06aNy3qlGzduVEOHDlWbNm1Sjx49UlGjRpV12RFAI5Prd533gwcPqmbNmum9gGHVnbFjx8rtNWvWOG5XqlRJHo+7wez0yZMnyypCWKIUmUMsbVm/fn19RvjB7wPjjMOqdNJPP/0kAeiPP/4Yrq9NIiIHBKFEFDpmIGaYAR4u6FxuTZs21WcaRtWqVX3thwczcHT5OJy3RIkSGfv379f38GEGIi7PtTYzmDVmz56tz/axdetWl+e62sqXL6/vZRjjxo1ztH/66ae61X2YAahRq1Ytefzp06c3qlSpYiRJkkT2e/Xqpc8KHy9fvjTixYtnTJw4UbeEHH4OM/iU3+3o0aN1KxFR+GMmlCgMPH/+XLrm161bp1teQT3HP//8U5mBiux/9913asGCBerEiROyHx6Q9cTqTFCtWjXJhD579kxdunRJMrKWvHnzSi1IHMfqO3iMyKAi+1m3bl313nvvyc+2ZMkSWbYRMA4RS49aBfcxMaZEiRJyO2HChI7briBDawZochtVA9q2bSu3zSBUTZgwQW67i0mTJsnjRvkizCDHc44ucrwO8Jzs2LHDUQ0hrCHrjoy6eRGh8ufPr1uDD8XuP/74Y7V9+3ZlXlwoM6jWR4iIIoCEokQUYn///bdRoEABySwWK1bMkd2zNr9ZPjNQlazTv//+q1vCnnMm1AwidauPuXPn+np8hw8flnYzqHK0mcGhtFnMwNQwA0jH8RkzZugjvjOhRYsW1a2Bc/dMaM6cOY0YMWIYd+7c0S0+zABRfqbGjRvrlrCH5z9+/PjyewmpNWvWGGnSpDFy585tHD9+XLcSEUUcTkwiCoUtW7ZIJsr8W5JsEmbLp0uXTh9VygxSVM+ePfWeDzNQk7GZq1at0i0RCxNOMmXKpPeUOn/+vHxFxtZy7tw5yYBakOXDyjndu3dXffv29fUzRgSsNIVxlh9++KFsc+bM0UeUjMVE6Su0ly1bNsAMM8ppIQMb2OYqo+3MDDwlo4xxmX5XEsqSJYtklH/77TdHNjqs4bWDjDN+L8GFygxNmzaVIvR43nbv3q2yZ8+ujxIRRSCfWJSIggNj8n788UfDDAIki/fkyRN9xDB27dplRI8eXbJhHTp00K2+VatWzahXr57eC3sBZUKRPUPW1jqOzCxYGTxrS5s2rYwVXLt2ra+fzy+/mVD8f/5tzoKbCV2wYIHjfIyHvHLlirRXr17d0d66dWtp88/Vq1cd5wa01a5dW9/DNfPiQ8775JNPdItv5cqVk+Nnz57VLWEHv4u4ceMakydP1i1BYwbyxpgxY+R3j9/tkiVL9BEiosjBIJQomO7fv2/Ur19fJiJNmDBBt/o2dOhQI2bMmBL0uDJlyhQjduzY8r3Cg3MQevnyZXkc586dM3bs2GFUrlzZcQzdybdv39b3MoyuXbs6jjlv+FkQ7K1atUqf+UpwJiYdOXJE3ytk3fEtWrRw3KdmzZrG9OnTHftZsmQxHj58qM90DQHcsmXLAt327t2r7+EaAjj8n99++61u8a1hw4ZyHBckYW3p0qVykfPPP//oloA9evRIgk9MnnrrrbeMPn36SBsRUWRjEEoUDGfOnDGyZctmJEuWTAI6/yBTimDBPxhHiCA0uNmsoArK7Hhsw4YN0/fwgSwpZsg7Z0r9bt26ddNn+4jIIPTBgwdGpkyZHPezKhIgKPM70z88zZo1S/7f3r176xbfmjdvLsd///133RJ2KlasKDPxA4Nxnt98843M2I8TJ47x1VdfGTdu3NBHiYgiH8eEEgWRGVCoQoUKqfjx46s9e/YEOPMZs80xK90/GEeIsZkoCh4Z4saNq/r16yd1IZ1hjGHHjh3VP//8I+MOP/vsMxnj6Ax1JP2rTZkmTRoZM+rfZgbv+syQwcz8uXPnOsZCYqwoDBgwIFSzxIPLDHrl63OncbPOrPaYMWPK17CC8bsYr4rfi1+ofoBxyd9++63Uo82RI4cyL4Sk5icWR8BqXmZAqs8mIrIBHYwSUQDGjx9vRIsWTbqDMbYuLBw9elSyZcuXL9ctYcc5Ezpy5Eip/4ifAd3XmBV99+5dfebrkG306+TJk0aFChUc3zNjxoz6SOTMjrfqc2JDNtR5SEFArl27JlnewDZkMgOCYQn4v7/44gvd4luNGjXk+IkTJ3RL2GjZsqVhBpiShV+5cqX8XjHuuHDhwtLVjqoLmLWPrOehQ4f0vYiI7Il1QokCgJqZyBZiZR9k/8wPd30kbDRs2FCdPXtWZigjexpWkCm0ZmYjK+c8890/qAl6/PhxWSXJDNbU22+/rY/4QE3JpEmTym18Pyvb51wnFDP/kY0LCsxCD0mdUPx/JUuWlIoEFmSVkSENjBmsyupMgSlTpoxUA/DPmTNnVObMmVWdOnWk5qtfqIdqBoFSNxTLtIaFv/76S/5PrNIE5oWGSps2rVQ6QL1XzNTHhjYiIreAIJSIXodxm5jljDF1yB6GB2RDMZ5xzpw5uiVsBDQ73j+Y6GPdp0uXLrr1lY0bNzqOJ0+eXLdGbCbUDOqMdOnSOe6XIEECx23UP40oWGUoceLERurUqXXLK5gchd9p/vz5dUvYwGQnMwiVDCcmmoVVRp6IKLIwE0rkwsWLF2XlmydPnsjYSOe6mmEN2dX58+fLqkoY8xgWQpIJXbx4sa8Vcz766CNZBx2ZvL1796qRI0equ3fvyrH27ds7xrM6Z0KxilLLli3ltn++//57yeI5Z0Kxln3VqlXltivWfbBG/cyZM6UN4yKR1TSDZ9nHWN0jR47IuNSI0K5dO2UG0lKzFM+VBeNTe/TooUaMGKE6deqkW0MH9WixTvzatWuVeWGkW4mI3JyEokTksH37duPtt982ypQpY9y6dUu3hh9k91KkSPHaKkWhEZJMKJiBleN+/m2Yne48yzo4s+OxWY/HORMa2Ib7ONcJRZ1LPG9glUPCZgZqkqWMCMhGIkuOWrFm0CnVEMzgXB5Hjhw5Ai0XFVT4PhkyZDAaNWqkW4iIPAODUCInv/76q0x0wcSU4ARvoYX/F8FLWJX0CWkQitJS6NZGt691f2vDMpEoBu+3zE9EBKEXLlyQCUPWPgroW27evCkXDdaxwYMH6yPh7/z580aRIkUc/zc2lFC6dOmSPiP0sGAAhh1YxfmJiDwFu+OJNGtZSmwoXxSWE4WCAt3YK1euVAcPHlTJkyfXrZEHk2qwfOfDhw9lklLGjBlDtEykN/j3339lshImBVmTt8LCkiVLZIgEvgZU8ouIyB0xCCWvh9nGqI05ceJEGefYpk0bfSRiIeh7//33JeDbuHEjAz4vh6AWs+xxcTJ8+HDdSkTkORiEkld7/Pixaty4sUz4+O2331T58uX1kchx9OhRVaxYMdW0aVM1atQo3UreBhPAihcvLosabNiwQcWIEUMfISLyHFwxibwWulBRDxJ1LRGERnYACrly5ZKZ8qiZOXToUN1K3gQXRuiCR41adMMzACUiT8UglLzS5cuXJdOEAuw7duwIcAnOiIayQyj9g+UWg1rAnTwDlt6sX7++OnnypFq2bJlKlCiRPkJE5HkYhJLXwcozCEBRdxIBaIYMGfQR+2jVqpWs9Y1alNOmTdOt5MkQgNarV09qgq5ZsyZca9MSEdkBg1DyKsgwYclHFFXfvHlzmM5kDmtffvmlGjJkiASkP/30k24lT/TgwQNZAtQKQHPnzq2PEBF5Lgah5DW2bt0qs8+zZ88uY0ATJkyoj9gXAlF0yX/xxReqa9euvtZLJ89w8+ZNVbZsWbVnzx4JQvEaJSLyBgxCyStghnGFChVk8tGKFStkKUp30bp1a5m5P3bsWFmiElkz8gwnTpxQ7777rrp//75MkGMGlIi8CYNQ8njodkeh79q1a6t58+ap6NGj6yPuA7OlsUY71nAvXLiwjGsl9/bLL79IAJo1a1b53WIxACIib8IglDza4sWLJQP68ccfqxkzZrh1Afi8efOqAwcOSDF73EYpJ3I/T548kQlnDRs2lEUSVq1a5RZDQ4iIwhqDUPJYyDRhtnHnzp1lNSRPWIEIE6kwnrVt27YSWKOrHl255B6QyS5QoIC8NpcvX65+/PFHqdJAROSN+O5HHmn27NmqUaNGsg481oSP6HXgwxOKlw8aNEitW7dOrV69WuXJk0etX79eHyU7Qvml7777TiYdZcmSRVbGqly5sj5KROSdGISSx0GWqVmzZqpLly6qd+/eutXzYLUnBDP4Wq5cOdWgQQP1zz//6KNkF5hwhOwn1n8fMWKEWrRokUqePLk+SkTkvRiEkkexMqA9e/aUDKinix8/vpoyZYpkQg8fPqyyZcsmXbzIvFHkunr1qmrcuLEsjIDJR6dPn1YdOnTwqKw8EVFoMAgljzFnzhyvyIC68uGHH6pDhw5Jly+C78yZM6u5c+eqly9f6jMooqCEFoaBYMUjTCTDGF6U2EqRIoU+g4iIIIrB6tfkAZYuXarq1q2rvvrqK6/IgAYExc+///57NWnSJJUzZ07Vr18/VaVKFX2Uwsu9e/ekliuWW4UBAwaoli1bqmjRosk+ERH5xkwouT1MzmEA+kqSJEnUmDFj1LFjx1SuXLlUjRo1ZEziggUL1IsXL/RZFFauX7+uevToodKmTauGDh2qunXrps6fP68+/fRTBqBERAFgJpTc2qZNm2SWMbrhx40bp1vJGQIirEE/depUlShRIlkCFOvR4zaF3JEjRyTzifqzsWPHVp06dZIxnwkSJNBnEBFRQBiEktvatWuXzAqvXr262xeijwjI2I0cOVKNHz9exi1iAhfqjBYrVkyfQYF5+vSpLICATPPWrVslw4yarZiA9NZbb+mziIgoKBiEkltCFqpEiRIy1nHmzJkMQIPh8ePHauHChWrChAkSSGHc6EcffSRBafr06fVZZMHkri1btshELwxpePjwoQz/QHd7qVKl9FlERBRcDELJ7aB7GWVvkIVCzUUGoCF34sQJKWuFNfWxHv17770n9Uaxzn66dOn0Wd4Hgecff/whzwtmtqPcUsmSJVWTJk3kueFQBiKi0GMQSm7lxo0bqkiRIlLuZs2aNSpWrFj6CIUWhjf8+uuvUuz/0qVLUnO0UqVKqlq1atJlj5WaPNmtW7dkkhvWcl+xYoW6e/euevfdd1XVqlVV/fr15fkgIqKwwyCU3AaCAqwOhELs27Ztk0LtFPbwlrB7924JyLC++f79+yUAxZKTyAZiGARux4kTR9/DPV25ckVeR+hq37x5s1QTwEUNaq4i+MZY41SpUumziYgorDEIJbeAwLNixYrq4sWLMo6Rhb8jDuqOouA6gjVs6MLHEIjcuXOr/Pnzy7CIggULSjmouHHj6nvZC36GPXv2SEF/fEUReQw/ePPNN2UIAgLrDz74QLbo0aPrexERUXhiEEq2h/F5GIuHQGjnzp2yEg1Fntu3b0sGce/evWrfvn3yO7lz544cw8VB9uzZVZYsWaT7Gr+rZMmSyfhSjKOMGjV8ShPjIuXvv/+WYQTIcGLc8KlTp9TJkyfVn3/+KY8ZNTszZswoXex58uSRccUInhGIEhFRxGMQSraHEjiYAb9x40ZVuHBh3Up2ggAQQR8CPmQbL1y4IGulI9v433//yTkI9hCIJk6c2NdX1NhEeSN071vjTpHxRlY1YcKEso8Z6SiPdP/+ffXo0SMJKjGGE1+vXbvmCIIB/w+CYGwIgrFuOwJiBJ74v4iIyB4YhJKtYQnErl27yix4jNEj9/L8+XMJFs+dOyd1SjHLHPtWAImAEgEkgkxkMy1Hjx6VMb9p0qSRfWRQsY9sJoLTePHiSQCL1aEwbvPtt9+WLCxKTNl1SAAREfnGIJRsC+vB16pVS40ePVqyoeQ9MN70448/liUwiYjIM3HteLIllAtq2LCh+uabbxiAEhEReSAGoWQ7ly9flq53ZEEHDhyoW4mIiMiTMAglW0EtUNRoxGzqKVOmqChRougjRERE5EkYhJJtoBRT48aNZZIKiqRjxjQRERF5JgahZBvdu3eXMkxLliyR2c5ERETkuRiEki1MnjxZDRkyRM2bN09mRhMREZFnYxBKkW779u2qXbt2UhOUtUCJiIi8A4NQilRYaQez4OvXr686d+6sW4mIiMjTMQilSIMVcho0aCBri0+YMEG3EhERkTdgEEqRpmPHjurkyZMyEYlrehMREXkXBqEUKTARCdv8+fNVhgwZdCsRERF5CwahFOH279+vOnToILPhP/zwQ91KRERE3oRBKEWomzdvqjp16qgqVapwIhIREZEXYxBKEebFixeqYcOG6o033lBTp07lkpxERERejEEoRZgff/xRaoIuWLBAxY8fX7cSERGRN2IQShFi69atqlevXmrMmDEqX758upWIiIi8FYNQCnf//POPFKNv0qSJatmypW4lIiIib8YglMIVxoE2atRIJU6cWI0dO1a3EhERkbdjEErhql+/fmrXrl3q559/VrFixdKtRERE5O0YhFK42bFjhwShw4YNUzlz5tStRERERAxCKZzcu3dPuuFRE7RNmza6lYiIiMgHg1AKF+3atZOvEyZMkK9EREREzhiEUpibNWuWmjdvnnxlPVAiIiJyhUEohakLFy6o9u3bq549e6qSJUvqViIiIiLfGIRSmHn58qVq1qyZypo1q/ruu+90KxEREdHrGIRSmBkxYoSUY5o9e7aKFi2abiUiIiJ6HYNQChPHjh1T3bt3V4MHD5ZMKBEREVFAGIRSqD179kw1btxYFS9eXHXo0EG3EhEREfmPQSiFWu/evdX58+fV9OnTVZQoUXQrERERkf8YhFKoHDp0SA0aNEiNGjVKpU6dWrcSERERBYxBKIXYixcv1CeffKIqVaok3fFEREREQcUglEJs4MCB6uTJk2r8+PG6hYiIiChoGIRSiBw5ckTGgg4YMEClSpVKtxIREREFDYNQCjbDMFTLli1VsWLFZHUkIiIiouBiEErBNnbsWHX48GE1ceJEFTUqX0JEREQUfIwgKFguX76sunbtqr7//nuVJUsW3UpEREQUPAxCKVjQ/Z4uXTr1zTff6BYiIiKi4GMQSkG2bNky2dANHz16dN1KREREFHwMQilIHj58KEtyduzYURUtWlS3EhEREYUMg1AKEowB/e+//1T//v11CxEREVHIMQilQB09elSNGDFCDRkyRMWJE0e3EhEREYUcg1AKFLrgixQpoho1aqRbiIiIiEKHQSgFaN68eWrLli1q1KhRKkqUKLqViIiIKHQYhJK/MBmpS5cukgnNly+fbiUiIiIKPQah5C+sDf/8+XPVp08f3UJEREQUNhiEkksnT55Uw4cPV4MGDVLx4sXTrURERERhg0EoufTll1+qggULqqZNm+oWIiIiorDDIJRes2HDBrVq1So1bNgwTkYiIiKicMEglHxBQfpOnTqp2rVrc2UkIiIiCjcMQsmXCRMmqFOnTslYUCIiIqLwwiCUHFCSCTPh27ZtqzJlyqRbiYiIiMIeg1BywBjQJ0+eqF69eukWIiIiovDBIJTEtWvX1ODBg1X37t1VkiRJdCsRERFR+GAQSmLgwIEqYcKEMimJiIiIKLwxCCV18eJFNX78eNW/f3/11ltv6VYiIiKi8MMglFSPHj1kItLHH3+sW4iIiIjCF4NQL4flOefMmaP69u2rokbly4GIiIgiBqMOL4eSTIUKFVI1a9bULUREREThj0GoFzt27JiaP3++jAXl8pxEREQUkRiEerFvvvlGlShRQpUtW1a3EBEREUUMBqFe6tChQ2rVqlWqX79+uoXIPnLkyKGSJUum94iIyBNFMUz6NnmRqlWrqmfPnqm1a9fqFiIiIqKIwyDUCyELmi9fPrV161ZVvHhx3UpEREQUcRiEeqE6deqo27dvq99//123EAXszp076uHDh3rPteTJk6to0aLpvYh37949deDAAVl2NmfOnLqViIjsikGol8GM+Fy5cql169ZxQhIFGRYymDt3rt5z7cSJEypbtmx6L2L98ccfqlSpUjLEBK9rvL6JiMjeGIR6GQQT586dUzt37tQtRIHD0q7InlsKFiyoPvnkE9W2bVvdolT27NnVm2++qfciVps2bdSyZcvU4cOHVaJEiVhyjIjIDXB2vBc5ffq0+vnnn1WvXr10C1HQpE2bVsYRWxug+925LXr06I4u+wsXLqinT5/KbcutW7ckSLx7965u8fHy5Uv14MEDuf38+XN1/Phxl13/yHIi24rv7Xzt/OjRI3Xjxg3J8CMIxvezPHnyRLL/9+/f1y2v4P/AuTdv3vQVYBMRUcRgEOpFUJQ+T548qmLFirqFKOzs2LFDxYsXT3Xp0kWlS5dOpU6dWgLRvXv3SoCYIkUKVaxYMZUgQQJVvnx5GcMJu3fvVnHjxlWzZs2S++NcfHUuH7Z69WqVKlUqVbhwYZUpUyYJgFeuXCnHcufOrRYuXCiVHvB9MNYZAeuXX36pYseOrYoWLarix4+vWrRo4Su4xf/RtWtX+V5vv/222rNnjz5CREQRgUGol7h69aqM6evWrRu7KincILOIYHDNmjVq5syZkh2tV6+eevfddyUbiQ31aTFmc9q0afpePoYPHy5ZS2RFO3XqpL777jv1119/ybFPP/1UNW7cWLKoyFqWLl1ahgPg/zt79qyqX7++BLbIkGJM6I8//ijff/v27XIfZFC3bNmiunfvLt/PMnHiRDVv3jz528AQAyIiijgMQr3E0KFDJTNVu3Zt3UIUPhA8IiCsVKmSdIf36dNHDRo0yDFeFMeQ1Tx//rzsW3BehgwZVKxYsVS7du2kDcEjPH78WLrc0XWObOf48eMlwPTvgmrYsGGS5Xz//fdlP2vWrPK4xo4dK1lSS5MmTSRIbtCggYoalW+HREQRie+6XgCZoMmTJ6vOnTtHagkd8g7OM+QRUOLCZ+nSpap169aqZMmSKnHixOrKlSu+xm5CxowZ9S0lZZYAY0QBQSXGMydNmlSyqqNGjZLv7SoI/eeff+Q1P2nSJMluWtvAgQPVf//958iuAiZTERFR5GAQ6gXwYYzgs1WrVrqFKPxgHKYF4z4LFSokWU5kQps3by4ZTIzr9Atd935ZE5CQsbx8+bK8ltOnT68GDx6s8ubNq65duybHnVnBbcOGDdW3337r2DAm+tdff5Xxnxbnx0pERBGLQaiHQ+bnp59+khI2yBwRRSSM/0SX+qZNm9To0aNVy5YtZdISspF+M6H+uX79unStI6DFOFAEkpjMhAAU39evlClTSpd9jBgxVN26dR1bwoQJ1cGDB1XMmDH1mUREFJkYhHq43377Tbon27dvr1uIIo4V8K1fv169ePFCuuEbNWoktzFeNCgwm37q1Knq888/V3/++acEo8uXL5dj/k0mwgz9//3vf2rFihXSpY9i9qiRi6VqGYQSEdkDg1APhxnH+NBHeRyiiFa1alXpgkcmHl3fmCCEMksYGrJ//359VsCQ0Vy0aJE6c+aM3B9BKQLMBQsWuOzWB1SB+OKLL2TSEYYBFClSRBUoUECyqEREZA9cMcmDocsSH/j4sM+fP79uJYp4yF5i/XkUvQ9piTC8VaFrHllUdLkHBbr8L126JKsooYueiIjsg0GoB2vatKlkj1BEnIiIiMhO2B3voVBPcf78+VL0m4iIiMhuGIR6KBTzRj3GWrVq6RYiIiIi+2AQ6oFQlgnLEWIyCCZ1ELmbKVOmyIx2IiLyXAxCPdDixYulLBPW2yZyRyNGjHBZA5SIiDwHg1APhKLgNWvWZFkmIiIisi0GoR7m1KlTavPmzbKyDBEREZFdMQj1MNOmTVMZM2ZUZcuW1S1ERERE9sMg1INgQtKMGTNUhw4dVNSo/NUSERGRfTFS8SArV65Ut27dUo0bN9YtRERERPbEINSDTJ48WSYkJUmSRLcQERER2RODUA9x9epVyYRyQhIRERG5AwahHgJjQZMmTcoJSUREROQWGIR6iKlTp6pGjRpxQhIRERG5BUYsHmDHjh3q9OnTqkWLFrqFiIiIyN4YhHqAWbNmqffee0/lypVLtxARERHZG4NQN4faoL/++qtq3ry5biEiIiKyPwahbm7jxo3q3r17qkGDBrqFiIiIyP4YhLq5CRMmqIoVK6pEiRLpFiIiIiL7YxDqxv7991+1fPly9fHHH+sWIiIiIvfAINSNLV68WEWLFk1Vq1ZNtxARERG5Bwahbuznn3+WADRWrFi6hYiIiMg9MAh1U3fv3pVJSXXr1tUtRERERO6DQaibwlhQrI6ESUlERERE7oZBqJuaP3++qly5sooTJ45uISIiInIfDELd0P3799XatWtZG5SIiIjcFoNQN7Ry5Ur5WqlSJflKRERE5G4YhLqhJUuWqLJly6q4cePqFiIiIiL3wiDUzTx//lwyodWrV9ctRERERO6HQaib2bZtm6wVzyCUiIiI3BmDUDezaNEi9f7776sUKVLoFiIiIiL3wyDUjRiGIUEos6BERETk7hiEupEDBw6oy5cvq5o1a+oWIiIiIvfEINSNYJWkjBkzqmzZsukWIiIiIvfEINSNrF69ml3xRERE5BEYhLqJ27dvq127dqny5cvrFiIiIiL3xSDUTaxatUpFixZNlSpVSrcQERERuS8GoW5ixYoVqnjx4ipmzJi6hYiIiMh9MQh1AyjNhPGg7IonIiIiT8Eg1A0cP35c3blzh0EoEREReQwGoW4A40GTJ0+u8uXLp1uIiIiI3BuDUDewceNGVbZsWRUlShTdQkREROTeGITa3PPnz9W2bdvYFU9EREQehUGozaE26P3792VmPBEREZGnYBBqc5s3b1Zp06ZV6dOn1y1ERERE7o9BqM1t2bKFXfFERETkcRiE2tiLFy/Uzp071QcffKBbiIiIiDwDg1AbO3TokIwHLVGihG4hIiIi8gwMQm0Ms+LTpEkjY0KJiIiIPAmDUBvDeFBmQYmIiMgTMQi1sa1btzIIJSIiIo/EINSmTp8+ra5fv84glIiIiDwSg1CbwnjQ2LFjq2zZsukWIiIiIs/BINSmdu/erQoXLqzeeOMN3UJERETkOaIYJn2bbKRQoUKqcuXKqnfv3rqFyPOgFu60adPUy5cvdYuP5cuXyyphOXPm1C0+UCmiYsWKeo+IiNwZg1AbevbsmYobN65auHChqlKlim4l8kwNGzZUP//8s94L2KxZs1Tjxo31HhERuTMGoTa0f/9+VbBgQfXPP/+oZMmS6VYiz3Ts2DGVO3duFdhbUebMmdXx48dVtGjRdAsREbkzjgm1IQShqVOnZgBKXgFd7vXq1dN7/vvuu+8YgBIReRAGoTa0d+9e9e677+o9Is+HADNKlCh673WZMmVSjRo10ntEROQJGITaEINQ8ja5cuVSdevW1XuvYxaUiMjzMAi1GUxKOnz4sHwoE3kT/7KhGTNmVB999JHeIyIiT8Eg1GYwSeP58+cMQsnrYHJS7dq19d4rPXv2ZBaUiMgDMQi1mSNHjqgECRJI9ofI23z//ff6lo8MGTKwJBMRkYdiEGozO3fuVHnz5tV7RN7FbzaUWVAiIs/FINRmkAllVzx5MysbihWTmjRpIreJiMjzsFi9zSROnFj169dPtW3bVrcQeY4bN26oO3fuqLt378qG2xgD/eDBAylW/++//8p5WBkpW7ZssnxtjBgxVOzYsWXSEoaqvPnmmyp+/PiOLXny5CpmzJhyPyIich8MQm3k2rVr8oG6detWVbx4cd1KZH9YA/7KlSvq4sWL6q+//lLnz59XFy5ckO3mzZuy+hc2v6JHjy4BZtSoUSWgtCDwBFSLgP/++0/dv39fbluBqjN8H6wrnyhRIpUqVSq5jfGk77zzjmzp0qVTCRMm1GcTEZEdMAi1kY0bN6oPP/xQ3bp1Sz5Miezo9OnT6tSpU+rQoUOynT17Vp05c0bdu3dPjuO1i6APW5IkSVTKlCnlNrKYKVKk8JXFDGkG08qkIiDFhgs4bAh+b9++rS5fvuwIgp8+fSr3efvtt1WOHDlk+U+MPcWWL18+BqdERJGEQaiNjBo1Sg0cOFD9/fffuoUocuG1uGvXLtkwae7AgQOSkUTmEgFd1qxZZSIdgkwEdVjZKE6cOPre9nD16lV17tw5CZiRpcWyuCdOnJB2wNjT/Pnzq6JFi8qWJ08eyc4SEVH4YhBqI59++ql8SK5bt063EEUsBGtbtmxRO3bsUOvXr5fXI7q6EWi+9957qnDhwqpAgQISfKLdnSGTiqAaG35erFSGTCp+rvfff19+zvLly6uSJUvaLrAmIvIEDEJtpFSpUpKRGTFihG4hCl8Yc4kAbMGCBWr16tXStR4vXjwZk1ykSBEZHuJNmUF05f/+++9q+/btMjYbWdM33nhDnosKFSqo6tWrs3oFEVEYYRBqI2nSpFE//PCDatWqlW4hCnuYib5kyRIJPJF1f/LkicxCr1SpkipXrpxkPBF4kU9Qiozw2rVrJUjH5CssJIEMacOGDVWxYsX4XBERhRCDUJtAYBA3blzpCi1RooRuJQobjx49UsuWLVNz5syRgApjOhF0YqtTpw4n5wTRyZMn1aJFi9TChQvVvn37pJpFjRo11McffywBqau174mIyDUGoTaB8WjIRmFWL0rMEIUFdClPnTpV/fbbb1KPE93JdevWleCT4xxDBzPvFy9erGbOnCnd9lZx/U8++UR6NYiIKGAMQm1i/vz5qlmzZtI1ymwKhQbqcs6ePVuNHz9eSilhYk3z5s0l44nxnhT2jh8/LgX28byjy75ixYqy4ETlypXZXU9E5A8u22kTmJWM4toMQCmkUIIIWTgUau/Tp49kO9F9vHnzZtWiRQsGoOEI5apQXg3Z0VWrVkn905o1a0pGdMiQIY4aqkRE9AqDUJtAsW8EoUTBhXHEyLyh8PrBgwfVTz/9JPU9hw8fLqWUKOJgrC1m0WP4A8pbYZLhjz/+qFKnTq2++eYbl6tGERF5KwahNmFlQomCas2aNVLPEqW9sKwlZrpjbDGyoW+99ZY+iyILMtJ9+/ZVly5dkoUoli9fLkuIWvWAiYi8HYNQm8CHEpYTJAoMutdLly4t2c/EiRPLSkYoI1S2bFl9BtlJrFixZLz3sWPHZMwoVp/C33qbNm1k/CgRkbdiEGoDKBiOWfHMhFJAMMmoatWq6oMPPpDxnZiRvWLFCsmGkv2hq75evXoyZAKTmHDhgGVOe/ToISXaiIi8DYNQG8BkhpcvXzIIJZf+/fdf1b59e1mb/datW5L5RLF5rK5F7geTDxs1aiSTxkaPHq0mTZqksmXLJoEp3geIiLwFg1AbsLrkWB+U/EJxeUwu+vXXX9XkyZNliU1mPj1DtGjRZOLSn3/+qerXry+3CxYsKEXwiYi8AYNQG0D3Ksq1xo8fX7eQt8MYYYz5RGmlli1bqtOnT6umTZuyhJcHSpAggRo2bJg6fPiwrFxVuHBh9f3338swHSIiT8YglMhGcDGCjGfOnDnVnTt3ZPwg6k/yAsXzoUt+48aN8vtHma08efLIJCYiIk/FIJTIJm7cuCETjzBrumvXrtL1jiLo5F2wuhVWYMLvvkSJEqpfv34cK0pEHonLdhLZwO+//y7rjmM9d4wDxdhAonHjxqmvv/5aFSpUSJb2TZ48uT5CROT+bBmEfvbZZ+qPP/7Qez6w/nKMGDGkNE2WLFlU69atVd68efVRH67uByiNgmX00KWJLi6Ms0PXlzN86KPgd2DefPNNtXv3br3nG57KcuXKSUYLGjZsqL799lu57Re6WVE70C9MVkAgkjFjRlW9enXZ8PgtY8eOVRMmTJDbGD+2evVql4XJkT3BZBZATULcjujxhLdv35ZC6p9//rn8vuh1eM0MGjRIyvQ0btxYjRkzRn7/RJYTJ05IaSdUScAFCv6miIg8AoJQuylTpgwC4wA3M6Aypk2bpu/hIyj3w2YGtMbSpUv1vXyYgZ7Lc/1uZiCs7/G69evX+zo3ceLExtOnT/VR37Zu3errXP+2EiVKGLdu3dL3Moz79+8bqVOndhz/4Ycf9JFXTp06ZZjBrOMcPK6I9uTJE6Ns2bLy/w8ZMkS3krNHjx4ZtWvXNswLG2P69Om61Z7MCzTj2bNneo8i2uPHj41GjRoZ0aNHN4YPH65biYjcmy0zoR9++KEM0IciRYqot99+W7KUyAQg02mNj0JWErOIU6RIIfuu7gc43/zAlzW2rWwnVprBcnrIkAIyrdb3rVatmr9ZQ2RjrQyjX6j9hy4zZ/PmzZOMqF/btm2T8V6AjCZu4/83g1Z19uxZWcbTggwZaghali1bJhlSwHOATEn69OllHypXrqxWrVolt9HFO3PmTLkdUTCeDdlmK2NsBqHSpUivYA1xjP/EIgX4faK71W4wI3/o0KGyFChW+zEvLFSyZMlkbfQuXbrI5Cln169fl56AoMDfSrdu3WQCzpQpU3Rr4PD3hLGS+Bu9ePGi/L3jb9kVvA7x/6Ceqhnk61af94mbN2/qPR/4ezcDPJUoUSJlXszK303KlCn1UXvAWzUy5Z07d1Zt27ZVI0eOZLUEInJvCELtxjmjuW7dOt3q4+jRo4YZtDmOmx9i+kjA94M///zTV4ZwzZo1+ojvTOjz5891a9Ddvn1bMlq4f+zYsR3fq1SpUvoM35wzoUWLFtWtr/z222+O74fNDFr1ER/IoFnHzIBUtxrGihUrHO3IxN64cUMfiRi9e/eWbA2ez8KFC8vjYCbUN7wOkc02gzjDvNjQrfayefNmx+sPj9UM3AwzwDTSpEkjbehN+OWXX/TZPsyLOjmG370ZzAW4mUGs3KdPnz6vHUNvA75PnDhxXjt28OBBuV+GDBnknKtXr8q+K3v27JFz/P59JU2aVNrxPuL8vePFiyft2PCz79q1S9/DXvA3jveY+vXr+9vTQkTkDtwuCIVWrVo5jnfu3Fm3Bn4/sAIjbPPmzdOtoQ9CEQxb9+/Ro4eROXNmx/7Jkyf1Wa8EFoRCz549HedUqFBBt/r4+++/fX1orly5UrpLnf/fGTNm6LP9hy7hcePGBbqtXbtW38N/eN7w/2bJksXYsmWLDJfAPoPQVw4dOmQkT57cKFasmFy42NGLFy+MjBkzyu9u0qRJxsuXL/URQ25PnDhRjsWKFcu4efOmPvIqCMXvPzQ++ugj+T6//vqrbnldWAShd+7c0S2v/Pvvv9LtjeMpUqSQYQh2tH//fvk5MOTlwYMHupWIyL24ZRCKzJ91vHv37ro18Ptdu3bNV5bywIED+ojvIBTjGRFQudqcP5Cd5cmTx3F/ZLr69evn2P/yyy/1Wa8EJQhFlsw6J27cuBIcOBs7dqzjOIIG5/8Tz0VQ4EPcuk9AGzKvgcHjmzNnjuNxMgj1be/evUaSJEmMatWqSfBvV8ePH5ffW0CvIStQnDJlim7xjCAU8PpFLwLOcX6PsBu8zyRLlswoXry48fDhQ91KROQ+bF8nFAW7MX4O66sfOnRI6icuXbpUH1XKfAPWt3zDDPKvvvpKmQGg6tChg4yrxNrb5pu1HMcYzHz58sltvzDbHOPDXG0Yk+UXltnDaieAJRUxG915dRuMR8NYz+DCOE/re9y/f1+eC2eoJ2l+wMptjCPt2bOn3MY4UWsGfWAwHhVjEgPbzGBf38N/ZiCvzADC12x+8nHkyBEZa1i2bFm1aNEix1hkO7LGTd+9e1e+uvLFF1/IKj8FChTQLZ4Dr99ixYrJbYyFtSu8z6CWLN4bsboWxr0TEbkVHYzainNGM6CtRo0avrKDQb3fBx98IN3ZzpwzoQFto0aN0vd45bPPPnMcR9e1xfnxIEPoLCiZUHDO3JqBpm59xfyQlDGY1jnYBgwYoI9GLmZCfSCzmCBBAqNy5cpuMYYPXdDp0qWT3x3GHZoXWf72ADjzlEwo5MqVS87Zvn27brGvM2fOGKlSpTKqVq3KMaJE5FbcMmWFTAVmnM+dO9ffrJv5ISX1RFF302J+sKr9+/dLYXBrRr0rvXv3Vn379nW5IdPp7PHjxzJjFzBzvkGDBnIbMEPcEtTMpF+YkWxxVQ8UM4WR7bWg/ilnotuHtQoSsvCoqoDXiN2hUgRe08iS//LLL1JDF7Pi8Tc3ceJEmZUeEMw8R93TgDZUgrAjZBNR2/fo0aMqbdq0bpHpRU1hVMNA9Q+855jv6/oIEZHN+cSi9uKcQWzfvr1kHzH+EePPlixZYpgfgvpM35zvZ40JPX/+vGF+iDrakQV1lQFxzoRi7GdQYfKPdT/MvDc/uBxbypQpHcewOU9QCkom9Pr1645zMBvZvywHJlhZ5yFzFRwYJ+s8Q9i/rXnz5voeQeftmVD8vooUKSJZNUx4cTfIMmLMNTKb1uvL2jAhBpUqnFmZ0KBsAf2NRVQmFO8L7733nmPDpD7zQk+OYdLV6tWr9T3cw4YNG6RXBBUqiIjcge0zoTVr1pQxnaiL17JlS6mPmSZNGn00cO+8846MaUySJInsb9q0SWoAhpXJkyfrWz5j6ZAlsra///5bH/ER3GwoMhsW1DoMjywaMsWZMmUKdONygcGHeo5//vmnWr58uazW5W7wO+/fv786deqUvJ4xthljq5EhXb9+vfQKYOUvv5BB3LlzZ4Cbcw9FSASnPqZ/56K+LjKe2DD289mzZ8oMRlW7du3k94Z6qO7EvAiXMevff/+9v7WMiYhsRQejtuIqoxkUAd1v8eLFjmPYpk6dqo/4CEkmFLNTrfugXFLTpk1f25CZtM5BRhEz7yGwTCjK9+TLl89xzujRo/WR14UmExqevDkTigw5XlPOtWg9BVbtMoNR+d1inKslIseEWtUoXI2TtiCTiXP8ljcLyphQd/b555/LWPK//vpLtxAR2ZPXTGOuUaOGrJ5iwThKrPDiCsaEIpvg32atZuScBf3444+VGXi8tv3888+OlWWwlvqCBQvktjNkmazvjfFyn3zyiYxftbJMyEQiC0zuAVk1VC7A2MLy5cvrVvfx2WefSQ+CVfHBL6xtj5WUMB57165dujVimRd08hVjbv1j9URY53oL86JP5c2bV8bwvnjxQrcSEdmPV9XSGTVqlGMpTywBiu5SV/r166f69Onj74YgFF3vCDItTZs21bde5xxAuuqSx9KN1vceMGCAwjKG9+7dk2NYOtDuJX3oFXzot2rVSibz4GLGHSG4xIURLqD8Y17AyhY3blzdErGs8mrr1q2Tr65YS/h6YhmpgGDYzqxZs2SYgbu+BonIO3hVEIo1pseOHav3lMyux9i2kFixYoW6du2a3Ea9Pr+z5p1hHJ01Bm7r1q3q5MmTctsVjF/D+EGsJY7xePggyZUrlz5KdjdixAj5neECBbPM3RGyuIA6oAsXLpTbzh48eKA6duwoQSjGbEeGWrVqyVcEWa7+htGGGf74u0MviLdBdZD//e9/auDAgfJ6JCKyoyjok9e3iSgULl26JCWy8MH/+eef61b3hADmm2++kdsIaJBNxNfTp0/LxCIsIIHyYNu2bZOJSoCMPiYNImtfpEgRafMPuvSXLFmi93zD0BZcIGJyTd26dXXr65Bxnjp1qly4oQQW/s/nz5/LRR6KuAO6pv2WLEO5KQzFweIPCRIk0K2eB2/tmKyEXhtc/BIR2Q6CUCIKvTp16hj58+cPVokvO8PEHpSYcp60h80MOo0vvvjCuHv3rj7TR3BKNGEin3+CMjEJUEB/5MiRRqZMmV77/vg9LFiwQJ/pm6dPTHJ25MgRKe82a9Ys3UJEZB/MhBKFgT179kh5n82bN6uSJUvqVs+A5TuR5cRXDGlBcfTQllgKa5iEdPXqVRnPmipVKmUGmvoIYaIZyoT99ddfbrFYAhF5DwahRGGgdOnSsmb/6tWrdQuRPWDoAS4cUNHg008/1a1ERJGPQShRKG3fvl0VL15cxiEGNhaSKDJgXOzixYulCD+yxUREdsAglCiUMPv68ePHau3atbqFyF5Qcgv1hjHZyxurBRCRPTEIJQoFjEPEjHB8uFtlg4jsCLWMEYxi6WIiIjtgvwxRKKBEUJIkSVT16tV1C5E9tW3bVibOsW4oEdkFg1CiUEBB9AYNGrhtYXryHlhQAwtrzJ49W7cQEUUuBqEUJp48eSLFsb3JmTNnZJ14FFcnsjsU9cdr1dUqWEREkcFrgtA6derIet529fTpUwlo3M3u3btlwgNWyUGJooDWG/c0WPEnefLk6t1339UtRPZWsWJFWfUKs+SJiCKb1wShWMrv4MGDes9eTpw4oXLmzKl++eUX3eIekP3ETNuzZ8+qcuXKSaCPn8NbYH3yKlWqeHTJm4cPH8qyj+QZcMEUP358tW7dOt1CRBR52B1vA8iAIpBzN3jMWEO8fPnyUp4I4yNz5cqlj3o+1AXFODs7QtY/b968ji1fvnzSVrRoUVWtWjX1/fffy8x+VzZu3CjBdezYsWWNd2S4UQEA67i7mtSCizvn/yugrV27dvpeSq1Zs0YuYrCNHz9et7qv27dvyxr2kyZN0i32g7HLH3zwgdq5c6duISKKRCjR5A1y5Mgha2DbEdbIxq+iV69eusU97N27Vx73p59+qlu8x4kTJ+RnP3z4sG6xF7/rvbvaEiVKZOzfv1/fw8dPP/3k8lxrixIlijF79mx9to+tW7e6PNfVZl6w6HsZxrhx4xzt7v4aevLkiVG2bFn5WYYMGaJb7WngwIGy3n5QHTp0yDAvNvUeEVHYiZRM6L1799Q333yjSpUqJWPqUqdOrcqUKaPMDyVfk1uwHvSHH36oZs6cqcw3QpmF/M4778gMz+bNm0sWzi+0IduSLl06WUO6YcOGwcoyrlq1Sv5P/H8LFixQlSpVUsmSJVMFChRQ3333nXr27Jk+85Vbt26pzz//XOXJk0eZH+yqcOHCqkuXLtKVGZg+ffqo3r17y238nPi/kWGDevXqyfO0ZcsWVahQIZUiRQrVrVs3OQbIJNWuXVu6wBMmTCiZpiZNmqhz587pM3z8+OOP8n1fvnypBgwYINmwt99+W55//J9+PXr0SPXr10/lz59fvi++P57H33//XZ/hsx41Sr4A1qXG9zeDaNkHfA88VjwXWG8cX3v06CFd+M6s+x44cEC1b99eXg8498iRI/oMe8Ljw/rp2bJl0y32hcwnSkhhPKDzcAlk7lq0aOH4m8P68F9++aXcxhCD+vXrq//973/KDFocGV+ci989znUFrxf8X/5txYoV02d6juPHj6uSJUvK8Ax3gNcA3iOwwEJAHjx4ICst4b0Pw5mIiMIcItGIZL75GWnSpJFMTeXKlQ0z8DDMDzsjVqxYkkUw3/T0mYZx+vRpaatQoYIRL148w3zzNMzAzDADTGk3Axbj/v37+mzDMD8YjbRp08ox88PO+OSTTwwzSDCSJElimIFQkDKhkyZNkvvj/0HWx/xwMWrUqGGYH67SXqVKFX2mjzNnzkhGCcdwLjI6ZhAl++nTpzfOnz+vz3TN/JB3nI/HagaVxu7du+VY0qRJjdy5c8v/jceOx2MGfnLMDOjkPmZQbrRq1cowAwPDDBqlLXbs2L4yFx999JG0W89z1apVDTPwM2LEiCHteAzOcBzt5oWBYQbX8jV69Ojy/69du1bO+eqrr4zSpUvLeXjO8bgHDRokxy5dumRkyZJFjuE5MS8KjA8++ED2kZG+ceOGnAdWNswMiOWrGdjJz2pegOgz7Klv375Grly59J794DnE84nt+fPnutXH3LlzHcewWdlc67WPzXqdWf777z+jYMGCjuMzZszQR3xnQs0LHN0aOE/IhJoXkPK3gefb+ju2eyYU78F4nOaFn2553ZIlS+R92vr9oLeGiCisRXgQiqATb2rz58/XLT7Onj1rvPXWWxJAvXjxQtqsIBRbz549jZcvX0o7PhDRrYf2yZMnSxtYwdaPP/6oWwzj2bNnEnyhPThBqHPABQiKUqVKJcfwuACPEx+6aJs1a5a0WYYPHy7tCOgC4193PIJQtCMIvH79ugRv165dM65evSrBWr58+YxHjx7ps33gwxz3sQJCsJ6XFClSGBcvXtSthvH777/Lc4Kfy/Lnn3/KuQhsnS1YsEDaa9asqVsMY8+ePdLWtGlT3eKjbt260j5+/Hjd4mPKlCnS7hxwWIEInu+FCxdKwISubrtDYI3uV7sKKAgFdMdax5cuXSpt06ZNc7Thwg9/O87w99C9e3cJwDdv3qxbIyYIRXc3Lgzxt4DNeUgA/ibweNGOi6vjx4/rI6/D3wv+38A25799/+B5xWPHBdeWLVscz5/dg9CnT5/K41y9erVueQXvD7jotn4v1jZq1Ch9BhFR2InwIBQfHt99953e861AgQLyhnfnzh3Zt4JQBGN+P0h/++03OYaMHODD5c0335Srd7/nIoBE1i84QWitWrV0yysdOnSQY8uXL5f9HTt2yH7FihVl36/33ntPjh87dky3uBZYEIpgzxmyrwMGDJAg0q9ly5bJfZDBtFhBKMb7+YVsHo49ePBA9jFGEPvIcvoNcLdt22ZcuXJF77kOQq0gtnjx4rrFt3fffVcCzlu3bsk+PvBxPrLi7gSBduPGjfWe/QQUhOIizsreY1u3bp20nzp1ytGGDRnuzp07S0CGINA/foNQ/H/+bc6s3z22oGRCrQshbOgZsV6L1atXd7S3bt1a2vyDCzjr3IA2ZPYDg4vQOXPmOC6a3SUIhfjx4/vKZuN3M3ToUEkC+H0usPn3nk1EFBoRPiYUxZIxDhIwrgzjqMwPI9WsWTNH7TrzTV2+WjAGFOPvnGHsGVhjDDFGD7U2zcDvtXMxljJ79ux6L2hy5Mihb73i9/9EaSXA7HBXMNYRQlv/0++4w4wZM6pvv/1WZrliXBdmJ6O8E2Y8//DDD3KO3+cQgvIzYRY1zsP4T8yINgNYGTd648YNGc+XMmVKOc8/GB8HqBs6efLk17a33npLxhWaAY+cZwnu7yeyYRwwlut0B9euXZOx0n/99ZfMisbYTIwHBfPizFE/N0uWLKpr165yG7DO+PDhw+X1jdcJZrGvXr1aH3UN45mjR4/u7xaaJSNRAgxjWAHjyjGG2Ayk1NKlS6UNj3/EiBFy2z/4OcwLtUC37t2763v4zwz05e8DX92NeYHrGLOOWr94DZgX9P6OYzcvONX8+fPVxIkT1aBBg1T//v3ltWJt+F2YFxIyht1qwxh6nDtq1Cj5PS1atEht2LBB3g8vXbqkzMBXf3ci8lo+sWjEQUalW7dujjGW1pY1a1YZt4nb1phBKxOKTIdfyALiGLpFYcWKFbKP7n5X0C0enEwoutP9QqYSx6zxUWYg6GvfLyvTE1hmJKBMaIIECfSeb8g+lShRQrKKuC82M/CTLnrctp4XsDKhrsaAYcwmjjmP0zQDFLmPNWYUG567SpUqybhbi6tM6LBhwxz3CWizhi9Yz9HIkSNl311grK75Qaz37Mc5ExrQht+XM2RJkTF3zpT63fD36yw4s+PNi0V9r+BnQgEZe+ehBOj9wFczwH1tpn9Ec6dMKMbXYzxrmzZtfL2HBLQhS4ohPXivRq8VNgx/cLUVKVJEjufJk0fG8ON9zO//g320YzgDhlLgfQQZVzPQlV4mZLqtLDMReaZIyYRitjayechaIOOGLBtmX2bIkEGfFXwowAxWhscvzPQMa5hhDsiKuXL9+nX5aj22kHCVZUFWAsXhd+3apTp27CgZCmQXkB3C7PfQQrZozpw58nMhK4RqA8gmo3IAZq5jlr1/UB0AevbsKXUo/duQ1XLmbtkk82/HLTNglrhx40oFhM6dO+sWH6gjidcUMqf4fWMmPDKMzvD3O3jwYL3nG7Lnffv29XdDpYnQQO3SuXPnOtbqR+8H4HWPag4UdOaFu/RO4LUcGBS5x3soKpbgvXrfvn2yoSfL1YaMOI6jyggy8Hfu3JH3jfv37yszuJRjqO5hXgRJNhmVPfC7xGuuU6dOUsED1U3wXoTemcaNGyszuJfHjO9HRJ4hQj9F0S3422+/SfkkvEnhzQZdyujWxBvhhQsX5LyAghz/oDsXQcHhw4d1yyv4fuGxTB2GCcD+/fvlq19Wu3Wef6JEiaJvBc2UKVOk+3zMmDFq5MiRUroKXegYhnD+/Hk5JyTPIZw+fVq+P97oUai8atWq8v/gd1OiRAn5ANm7d68++3VWwILudpRb8rvhvps3bw60PAyFHbxGRo8eLQXhp0+fLh/+GAqDklmuoEsWXeco6YT74HeJwKNChQr6DCXdsq4gCMUFiH+bdeEWGihXhiEFFhTTb9Wqld4LGC4MUTIssM3q9vdUeM9BeTf8XSOADywB4N/FfXDhPQVDelD2CRfSeJ4xjAjBKC6mcYGN8m64AEYAi6FauGBFabypU6fKkBA8VlxElS1bVkrh4X54XyIi9xPhQSjggwgfcs7wRmhlDkOyTCAycPiQREZw4cKFutXHrFmz5Ao+rCGAxhsqPtj9BrnIUlpriyN4CwjG5YE1LjMw1vOITIEzBBYYgwUheQ5h+/bt6pNPPnltbB0yTwkSJJDbfn93zpAxyZo1q1xsYKyZMwS2CJjx/f2O23U3eL0hg+8OkMnGmD1kNTH2GmM848WLp4++gvHUCBLwAe/3Z8PvFH9HFuuCMTJs27ZNLV68WO/5ZEPx8wUFXneZMmUKdMPfrSdDUIfXAN6/ML78zJkzspQnasNa70fO0HsRkfD3hbrLyJJibCnGvGMMPrKxGAOP4BQX91u3bpVAFrWm06ZNKxnTsWPHyhyBkF6IE1HEidAgFNlKZEFxtYss6KZNm9Ts2bOlwDqyJBgsD+i6CQlMosCHKAqrY2IBglEUW0bQE5oucf/g/8L/iTd0dFOjmxKD71G0vXTp0pKZRcbI6jr0jzXZB11jCBgQwAYESypChw4dJAuAZRYxUaBkyZKOQDakzyGyDhgq8dNPP8nzhoL9CCjxRo+ueRS4D6jbEwEqPgSQaUGQjt8rAgZk4xCMI8uB4ueugiB3guy9f8Mw3BUuapAFRa8EitT75TypKLImZaE7F+8XVheydWGEJWOxBQbBDf6+AtvwGvVkeO1i8qAFf6/ILP7888+SVURmEhceFvRc4G83smFiI7ruEWwiEMVEOwxDwsUzFgzBbbz/IoDF+yqCWLyvMlNKZFPmm3mEQmFsqxSTtZlvKsbKlSulriT2Bw8eLOcGZ2KSBZMTUAbI+t5x48aVyUYoAWQGhfos/wVnYpIFjwWF5q3/E1uhQoUMM8jWZwTMvGKXYvOYXIH79u3bV9oxMcn80JTbfpnBnWNSBjYzIJbn4t9//5Ui/hjwj3qAENyJSSgBhaL81vfGhpIumDiASUsWVxOTLFjS0yqeb20on4XJG86sySnuVocQE2lQm9Ku8Fq3nne/pZH8Y15AOe6DDa8b8yJH6ojitY/XgHXMeQKg88Sk1KlTy7kBbdZkE+eJSXhPcHWutVn3wWvNug/+ZswLHMc+Hp9zHdyI5i4Tk1D/FY8TkzkDg98tnnPUcMb7gjvA+ylqxY4ZM0bex6xJsHg/wvsmFgPhhCcie4jwINSC2p0IipxXPApLFy5cMI4ePRqhbzaob7pv3z6pRRgSCBrxvAT1MaOOJ2YbYwUUvPGGtXv37sn3x0ICIYXZzPg9YxWl8HiMkQWBESoR2FVIglDAhYx1P/+2TJky+bpoCc7seGzW43EOQgPbcB/nOqGoYYrXJzRs2NDRjpW3IivAcJcgFH+LeJy4iAwqXNzib9kdoeIDFlfAanxWsgALdOAiZsOGDQxIiSJRpAWhRO4MRcqRHcIHnB2FNAjFhQKW9cycObPj/taGTCOKwTsHoBARQSguKtErYO07r2h08+ZN4+2333Ycs3pSIpq7BKGrVq2Sx2kF8d4GPWzo6cKCGvg7wbLOLVu2lB4tBqREESsK/jHfkIgoGDBzF6VjMGvceeycJ8H4unPnzsk4UUwmxFjhwMY3k/2h1BGqJUTm5DK7wIRVjIPFuHdUbMEEJ5QRxJjTnDlz6rOIKLwwCCUKgRcvXsjkKkw8w4cWkbtAhQpA8EWvYBUn1EdGFQis/IZJmM2bN1f16tWT+rREFPbct9o2USRCRhBLHWIZQiJ3smXLFinHRb6hxm23bt2kzB8WUcE+KpCg9BO++l1qmIhCj0FoJENpEazRTe4HJW0YhJI7QYYPq2F9+OGHuoVcQXk5ZERRHxV1SrHARrZs2aQW9dq1a/VZRBRaDEIj2RdffCF17Mj9YPUWXEAwQ0LuAjV7kdnDeGYKHBZuwHs0VuJDMX9rJTGsUIca19aysUQUMgxCIxmKbf/77796j9wJCmLjAx1rmRO5AxT0r1Wrlt6joLKK+S9fvlydPXtWlhzFCmSYrIcFS7CSExEFH4PQSJYwYcIQr25EkQsfTI0aNZJuO87vI7vDUpZY9cqamEQhkz59elkBDssQY+JS37595WIUa+AzGCUKHgahkQxB6O3bt/UeuRssbXr+/HkZM0ZkZxMmTFC5c+dWRYoU0S0UGlhmul+/fvL337lzZ1nqGJlRLHnLYJQoaBiERrLEiRMzCHVjmTJlUpUrV1aDBw/WLUT2g6AIGfvWrVvrFgorKNWGyUuou9qpUycJTDNnzqymTp0qpdyIyH8MQiNZokSJ2B3v5r7++mu1Zs0amXlMZEdjx45VUaNGVS1atNAtFNYQjHbv3l3GjKKbvn379ip79uxq0aJF+gwi8ovF6iMZZsb36NFDXbt2TbeQO0LNUGRFw6IAOCY8/PHHH3rPB+qSxogRQz7osmTJIhmtvHnz6qM+XN3PP5jZi65ZwGP/77//JEhZuHChjHnzyzoHk7GQUXMFbyWYsHHjxg3Zb9iwofr222/ltl8HDx5UzZo103uvYJwtflbMSsaKNfg5/c7kvnLlimrXrp3cxgo3Y8aMkdsBwd/ZqFGj9F7AMBs6IoO1P//8Uw0cOFAdOHBAxY8fX7rLkVFLkSKFPiN0sPIVuok///xzydhRxEB5J4wXHT9+vCpZsqSsUpUrVy59lIgEglCKPAsWLDCiR4+u98hdLV++HBdzxt69e3VLyJUpU0a+V0CbGazJWuXOgnI/a9u5c6e+l+915itWrKhbfbPOee+993TL69avX+/4PtgSJ05sPH36VB/1LTjrzfv9OU+cOOE4ZgbkujVgZjDg63sGtJkBob5X+NuxY4fx1ltvGW+++ab8/goVKiS/W/NCwDh79qw+K3T69+8va+vfvXtXt1BEMi8ujEqVKhnmxZXRtm1bw7xI00eIiJnQSIaVOcwPH8lWIPtD7gvZDmTxNm7cKBm9kEIhcXwPQFYM67YjC4lSXsh0vnz5Uo6ZgYvM0LUyZq7u5x+sH46MKuAxW98TzAsjVadOHb3nwzoHK+3s2rVLt/qGSgHz58/Xez5QEggZUb+2bdumSpQoIbcxLtq5eDrG0eHnRMYTkKFFVgkTQQDr9aObE/AzBKVOK8bpWVlAjNez7u8KMrS1a9fWe+EHv1NkKDEcB+8DyDYDnn88Z3hfCG1hdDyHWbNmVWYgKtlVijyrV69WHTt2lDkAyJB++umnKlq0aPookZeSUJQijfkBKtkXfCX3duTIEcl2zJo1S7eEjHNGc926dbrVx9GjR42ECRM6jv/000/6SMD3C4hzJhRbypQpDfOiSB/1EVgm1PxglWwezokdO7bje5UqVUqf4ZtzJrRo0aK69ZXnz58bxYoVc5xjBrP6SOgzod27d9etkQu9IHg8Xbp00S2vmEGoHDtz5oxuCZn69esbuXPnNp49e6ZbKDKhZ2Dw4MHyN5IvXz7DvNjSR4i8EycmRTIri2Vlfch9YbwXsk1WtiM8YJykc5YOmdCw9vfff6tevXrpvaBxXj0GYyqRbQSUrgrJilLIEOXPn1/vKWUGpfpW5MPEE4zzC2zDGuQBscp6YQUev1BxAZAVDakVK1aoX3/9VY0bN05W+qHIh3Hd33zzjbw2MCkVvQFdu3ZlSSfyWgxCIxm64GPFiiXdjeT+0O2L7mV0tYUXa+IPxIwZU9/yDV3n6O51tTl3vTt75513VOzYseU2ah4eOnRIbgeF89Kz6M52nnQ0ceJEfSvo0D39yy+/yO04ceI4grKwYF58u3xesAWlpM6ePXtU27ZtA93wMwQEheMB3eV+YZIbWOcE161bt1SrVq1kAlexYsV0K9kF/tY2bNigZsyYoWbOnCmTBLFP5G0YhNpAqlSpJPtE7g9BIWaPL1myxFdgFlIYL/jPP/9IDUIEhciaLF26VB9Vqnjx4vqWbxUqVJDsl6utXr16+izfkiVLpnr37i23Eahitj0CtsDs27dP1taG999/X7KgTZs2dYyLnT59eoBrbGP8J2aFY8NF2VtvvSXjIa9fv66SJ08uGUME9mEFM9FdPS/YrHGnAcHY32XLlgW6Va1aVd/DNas0m6uxu9bPe/PmTfkaHPidNW7cWJ7PQYMG6VayI4yjRqWIwoULy7KgKOv06NEjfZTIC6BPniIXxs198cUXeo88AWYkY9azGZzplqBzHtsZ0FajRg3jxYsX+l5Bv1/t2rX1PXw4j/fEWEyMIbTOnTBhwmvn+GUGq47zx40bp1t9P545c+boVh9BnR2PMZ8///yzvpeP8JwdnyhRIn2P8JchQwb5P10xLzrkmBnw6pagGzJkiIzPDYtKDRRxFi5caJgXXUbWrFmNXbt26VYiz8bZ8Tbw0UcfSVeg1f1I7g/dupUqVVLnzp1TO3fuDHCmul/Os9xdwWzx+vXrqylTpshQDovz/dAdbnXp+oWZ4c6z3/3OfMfjLVq0qBxLkCCB1LFERtLV7PjHjx/LMVR3wHg3ZG2xFC1gnGiTJk3kNrKHzkubOs+OR0/Axx9/LLfxfyBriszv8uXLHUMHMK6xTZs2cju0s+PxWFDP1BU8n19++aXeC1/ZsmWTx47XCn6nzjDuFL8/ZLQxqzqo0KVbvnx5NWnSJNWyZUvdSu4CQ23wOkdPSrdu3WQ9emToiTyWhKIUqcwPPaN48eJ6jzwF6gFmzJhRZnn7Vy/TFecMYvv27Y1Ro0YZY8eONcyg0zA/nIyLFy/qM31zvl9IZsc7ZzlbtWrl+F5mIOlvJnTGjBmO86JFi2akTZvWsWGWvXUMmxk86nsFPjse8LNa55jBsGFeqEl7ZM+OR8YKGdPAtsmTJ+t7uIbnEo/HVf3OgwcPyjHMbg8qZN3jxYsntSjJvaE2bpw4cYzChQtLVpzIU3FMqA1g1RdOTPI8SZIkkbGBmFyCrJT596aPBF3NmjVVhw4dZKILvkf16tVVmjRp9NHwg7Xw8fgBY1ytjKRfzuNekc03A2TH5nec84QJE/StoKlSpYpkVwE1Ui9fviy3IxvGrSJLGdiGMZkBwTlw6dIl+erMasuQIYN8DQyeG2TekV0O6spQZF9Y9nP//v3qyZMnsmLYb7/9po8QeRYGoTaQMmVK23zAUthCtzHWlcdymJipHJJANDIkSpRICtoH5PTp02rr1q1yG8uJYjKS3w3DBiyYCRzQBCW/8L2fPXsmtzHhC38ndoAJJBiSENhWt25dfQ/XMBkFcK5fGBIB1rCIgKALt3Tp0jKsYc6cOTK8gtwfJvhh0h4mEuK11LNnzyBVbyByJxwTagN79+5VhQoVktqS1ng68iwY34hxmCjdhPJHAa2o5Dy2c926dRL0BIXz/TA7OqAsWqlSpWQGOgS0GhLGT1qBJjifg5n6yJgCMrVjx46V236hfqpVMxPjRDH+03lMKHoCnMcvoiYo6uZi9SUrCEWJJtS9BOcxoQiWkSn2D8bG4nlwHhOKigLWz+4KyudExHhK/Izp0qWT2q87duxwjO9FUJk3b175nWBsLFbG8g/eM/Cz4DnbtGlTsMYek/tYvHixZEcLFCggtWPxuifyCAhCKXJdu3ZNxn/t379ft5AnWrt2rcyYNwMc3eJaSMd2Ot8vsM15XGRAM9/N4FHGelr3s87BLPpkyZI52p3Xovdr6NChjvPMwFPagjo7HhvGlpoBm9wPnMeEBrZZz19w1o73b4xqeOjRo4f8n3heUUEA40gxzhVtftfM9+uff/4x8ufPb2TLls24fPmybiVPhVX1zAsWw7xwkfXoiTwBu+NtANkLrBATHqvfkH1gRjYyGsgGfvLJJ7ZaBcg/OXLkUF999ZXeewVZSfPiSW6j2xD1Qf2DrKy1Rjayqshk+gcZYswGxrhLrKuOLv0tW7bYpis+rCFDO3z4cMkUI0OM1wVqg2L8LDJf/kHVBRShxzhcZL/RFU+eDZUg0IOAzDmy+fPmzdNHiNwXu+NtAh/k6KrFkm7k2TDeD4XMCxYsKGNFsSIQeTd0vaMUFr5iwpI1IcsVLA6ASVsYxrB+/Xopo0XeA+NCsawuFl1AGaf+/fsHOLyHyM6YCbUJZH1QG5A8X5EiRWQMIH7fGBd5/vx5fYS8FeqEom4oMs8BBaBYLQuvGYwhxxhQBqDeB2O4EXhiJTJk0TH5zxo7TeRuGITaBCZPoIuNvAPWC0c3MwIOlGDBDHoi/6DDCpkvlOxCMXMEo8ygezcMVcHiBL///rsM9bGWgSVyJwxCbQKZ0DNnzug98gYYx4dAFJkMzP7Guu3+1eMk74XZ8lg5qU+fPlKzddiwYex+JYESXhiegfHZqHjBUn/kbhiE2gSCUBT4xkQD8h4ovzNx4kQ1bdo0KXeEcjuuipeTd0KmK3fu3FLOCWOJreVNiSwoKYbXBjLjmCB44sQJfYTI/hiE2gRmPmLAOQJR8j7oWkO9WKzBjglLv/76qz5C3ujRo0fS7Y4asVgJCbVZMWyDyBXUl8YkNdTkxcz5PXv26CNE9sYg1CYQhKKMDVahIe+EAuy7d+9WTZo0UQ0bNpTxf8iAkXdBwInsJyonYEOWnOM/KTBY7ABjhTE+FD0q1sIVRHbGINQmEIBi9RRrZRnyTngdDB06VLrXMGseNQGxFjiX6/N8GPuJpV0xzg/Z8KNHj6patWrpo0SBw0RHLN2KYRvIoFurjBHZFYNQG0F9wIAKeZP3wPKYyIq2b99eisVj33n5TPIcmIw2evRoqRW8atUqWeL1l19+UUmTJtVnEAUdSjiNHz9etWrVStWuXVutXr1aHyGyHwahNoLxPKwVShZkNVAPENnxtGnTyjrumEnPUl6eAwECxnpikQqsgY/sJzJYRKE1duxYGVdcvXp16aYnsiMGoTaCrldmQskvZMgWLVokY7ywqg6KmiNDiuUdyT0hy41xewg40fV+6tQpWcIzduzY+gyi0BsxYoQsBVu3bl3JshPZDYNQG0Em9O+//1b//vuvbiF6pXTp0mr//v1q6tSpUtw+ffr0qmvXrur69ev6DLI7DKlAzc/ChQvLGvkY+4uJR8h0E4U11JMdM2aMatGihapTp4683ojshEGojWB2NN400CVH5AqWd2zcuLE6fvy4TGDC2EFMaPviiy84lMOmsNoRLhpQTBxDKlB+Ccu2og11HYnCEz5TMEYUk9wqVqyojhw5oo8QRT4GoTaCrjgEFHyToMBgvOinn34qJb2mTJkiXfWY2IayTtu2bdNnUWRCsDlp0iRVoEAB+fCPGzeu2r59u2RDixQpos8iCn8IRJFxRw1R1J7l6nxkFwxCbQZd8ihaThQUKOnUqFEjdejQIbVy5Up19+5dVaJECRlfPGHCBNmniIVxu506dVKpU6eWDHX+/PmldwOz3lF+iSgy4MIVi2Ag0YGLIpQEI4psUQz0FZFtdOvWTa1bt07WAyYKCWTS0f02e/ZsqS+K7GizZs1kIgzKt1DYu3//vlq8eLFkm37//XcZWtO6dWt53hMlSqTPIop8mNCI8eUY2oNhIZwMR5GJQajNzJ07V+q7PXjwgAEDhQq6g7HiDtamRxd9ihQp1EcffSQbygKhi45C7smTJ1Ji6bfffpMNH+qY/IFhEsh48vklu7p8+bKMR8ZQEVTe4GcNRRYGoTaDbjss2Xf48GH5ShQWUFsUFzjYTpw4oTJkyCD1AzFZAePEEEBR4FC5AqvQYFuyZIl6+vSpKl++vKxQg4wzs0rkLtBjgoslrNI1aNAg3UoUsRiE2gy6T+PFiydlNZo3b65bicIOglBkSH/++Wf5IEqSJImjZiUmLWAsI/nA2yMuCNeuXSt1FtF9CXiesBoNMp/x48eXNiJ3gyL2uBDFil1t27bVrUQRh0GoDSEzhWUahw0bpluIwsc///wjASkmzWzZskU9fPhQxjMiyCpUqJD68MMPVcqUKfXZng9vh+iNWL9+vfrjjz/U5s2b1bVr11Ty5Mklc1yjRg31wQcfqFixYul7ELk3JDwwgQ4lw3AxShSRGITaEN4QsFQjJigRRZRnz55Jpg+vO6zog3JCjx8/lgAMF0bousMYMown9YTsH9Zsx9g4TALctWuXLASAnx+BOH5mfCAjEC9XrpxUGyDyVC1btpRxzQcPHpRFMIgiCoNQG5ozZ47q2LGjun37tm4hingIShGgISBFVhAB2sWLF2X8aKpUqVTevHkla4qxy6hRmidPHtuOiTx//ryUTsLYWASbWCYT3ewY44nSNfhZEGAj2EZJJQad5E3wt44Z8/iKSYxvvvmmPkIUvhiE2hA+ILE+OAoKZ8yYUbcSRT6Ud0G2BF3W2A4cOCABnnXBhPGlqEOIDWNLUZ4It5FZTJo0qUqYMKFkUcMik/rff/9JHVRsV69ela8Iki9duqTu3LkjjwvbX3/9JTPZMVsdQwsQNOPvC4En6vIi4IwZM6b+rkTeCb0CuBDDRDuUdyOKCAxCbQjdhAkSJJDVVho0aKBbiewLH2DIMlqBH7YLFy5IOwJCV4Wx8RpHFhLZ0zhx4sha6hYEuwgMnTOr6CZHpgbf7/nz57LvDGVmUIYK39cKhK0Na7Mj+Hzrrbf02UTk16ZNm2Qc+KhRo2TWPFF4YxBqUxiPhq5ODBoncncYW+o3a2kFlPfu3ZOqEGBlVKdOnapy5MghtQwRqCJIBQSmqB5hBa7IqCLLisATt1nvkCh0+vbtKxvGSWNoClF4YhBqU126dJHZiliOkcjbIGuJ2ptYQYyIIg5CAlSCwHAblHCzLgCJwgMrVNsUSjRhhjxWvSEiIooIGDuN5WcRjH711Ve6lSh8MAi1qZIlS0oXJdeQJyKiiIQJhlOmTJElf7HKGlF4YRBqU5hJjJnxW7du1S1EREQRAxOUOnfuLOUCr1y5oluJwhaDUBsrXLiw2rlzp94jIiKKOD/++KOUWvv00091C1HYYhBqY+iSxwxFIiKiiIbKFNOnT5dV1DBOlCisMQi1sRIlSkh9Raz0QkREFNFQpqlHjx6qQ4cOUguYKCwxCLUx1AnFijNYRo2IiCgyfPvttypDhgzqs88+k1nzRGGFQaiNoVQGuuS3bNmiW4iIiCIWuuUxW37Dhg1q5syZupUo9BiE2lypUqXUxo0b9R4REVHEQ+3q9u3bq6+//lpWOiMKCwxCbQ7jQi9duiSF64mIiCLLwIEDZelcrOhHFBYYhNpcvnz5ZF1sdskTEVFkwhKeI0eOlK75PXv26FaikGMQanNvvPGGKlOmDINQIiKKdLVq1VKVKlVS7dq14yQlCjUGoW4Af/Br1qyRZTyJiIgi06hRo9SRI0c4SYlCjUGoG6hQoYIMBOc68kREFNlQrqlTp06qW7du6t9//9WtRMHHINQNpEmTRmXLlk1WrSAiIopsqB36/PlzNWDAAN1CFHwMQt1EuXLl1KpVq/QeERFR5MGE2aFDh6qffvpJKrgQhQSDUDdRuXJltXPnTnX37l3dQkREFHmaNGmismTJon744QfdQhQ8DELdBIrWR4sWTa1du1a3EBERRZ6oUaOqQYMGqenTp6sTJ07oVqKgYxDqJlAguHjx4gxCiYjINlC9pWDBgjJJiSi4GIS6EXTJMwglIiI76devn1q6dCkL2FOwMQh1IwhCL168qA4dOqRbiIiIIlf58uVV6dKlVf/+/XULUdAwCHUj2bNnl0HguOIkIiKyi549e6olS5aoo0eP6haiwDEIdTMoXL98+XK9R0REFPmwvDQm0HKmPAUHg1A3U6VKFbV37151/fp13UJERBT5vvzyS7Vw4UJ15swZ3UIUMAahbuaDDz5QceLEYZc8ERHZSrVq1VTOnDm5ihIFGYNQN/Pmm29KSYxFixbpFiIiosgXJUoU9d1336nZs2erq1ev6lYi/zEIdUN16tRRGzduVPfu3dMtREREka927doqefLkasyYMbqFyH8MQt0QSjXhinPx4sW6hYiIKPJhZb9vvvlGjR8/Xj1+/Fi3ErnGINQNxY4dWyYo/frrr7qFiIjIHrCm/MOHD9Uvv/yiW4hcYxDqpurWrSurJz148EC3EBERRb4ECRKoxo0bq3HjxukWItcYhLopTE5ClzxnyRMRkd107NhR7dq1SzYi/zAIdVPx4sVTVatWVXPmzNEtRERE9pAnTx5VuHBhNWnSJN1C9DoGoW7s448/VuvXr1d3797VLURERPbw2WefSaKElVzIPwxC3RhmyceMGVOtWLFCtxAREdlDw4YN5TOKE5TIPwxC3RgK12OFCnbJExGR3SAArV+/Picokb8YhLo5lMLALPmbN2/qFiIiInto1qyZ2r9/vzpx4oRuIXqFQaibK1u2rHr77bfV3LlzdQsREZE9FClSRGXMmFHNnDlTtxC9wiDUzUWNGlXG3UycOFG3EBER2Qd67LCevGEYuoXIB4NQD4BZ8seOHVP79u3TLURERPbw0UcfqcuXL6sDBw7oFiIfDEI9QMGCBVWWLFk4QYmIiGwnc+bMKnfu3Bw2Rq9hEOohmjZtKt0dz5490y1ERET2gGFjLNVEfjEI9RDNmzdXt27dUitXrtQtRERE9lC9enV16dIlmSlPZGEQ6iFSpUqlKlasKNlQIiIiO8mVK5fKmjWrWrJkiW4hYhDqUT755BO1fPly1gwlIiLbwSp/XOGPnDEI9SBYPSlRokSsx0ZERLZTqVIlqeJy4cIF3ULejkGoB4kWLZpq0aIFa4YSEZHtlClTRhZX4dwFsjAI9TDokj916pTavn27biEiIop8b7zxhipXrpxas2aNbiFvxyDUw6RPn16uNkeOHKlbiIiI7KFkyZJq/fr16r///tMt5M0YhHqgVq1aqYULF6orV67oFiIioshXtmxZ9fDhQ66eRIJBqAeqW7eujLuZMWOGbiEiIop8GTNmVJkyZZJsKBGDUA8UI0YM1b59ezV+/Hh2eRARka2UKFFCrVu3Tu+RN2MQ6qHatGmjrl27Jt3yREREdoF5C7t37+Yy08Qg1FMlSZJEuuWHDx+uW4iIiCIfJidhXOihQ4d0C3krBqEeDNnQP/74gwPAiYjINtKmTaveeecdyYaSd2MQ6sEw7iZfvnzMhhIRka289957aufOnXqPvBWDUA/XuXNnNX/+fHX16lXdQkREFLkQhG7atEnvkbdiEOrhPvroI5U8eXI1ZswY3UJERBS5EISiljXrWXs3BqEeDuvJf/7551Ku6dGjR7qViIgo8hQoUEBFjRpVHT16VLeQN2IQ6gWwgtKTJ0/UlClTdAsREVHkiRMnjsqWLZs6cuSIbiFvxCDUCyRMmFB99tlnsp78y5cvdSsREVHkyZ07t9q7d6/eI2/EINRLdOrUSZ0/f14tW7ZMtxAREUWevHnzqmPHjuk98kYMQr0E6rLVq1dPDRw4ULcQERFFHnTHnzhxQj1//ly3kLdhEOpFunfvrnbt2qU2btyoW4iIiCJH/vz51YsXL9Tp06d1C3kbBqFeBONvqlatqvr3769biIiIIkeaNGlU9OjROUPeizEI9TI9e/aUTCiXSyMiosj0xhtvqHTp0qlz587pFvI2DEK9TOHChVXFihVVv379dAsREVHkyJQpkzp79qzeI2/DINQL9e3bV2bJ79+/X7cQERFFvIwZM6ozZ87oPfI2DEK90LvvvqvKlSunvvvuO91CREQU8TJnzszueC/GINRLYWzoypUr1Z49e3QLERFRxMqQIYO6fPmy3iNvwyDUS5UsWVKVLl1a9erVS7cQERFFrNSpU8tKfteuXdMt5E0YhHoxjA1dvXq12rFjh24hIiKKOClTppSvnJzknRiEerFixYqpDz74QPXo0UO3EBERRZykSZOqqFGjquvXr+sW8iYMQr0cCtdv2rRJrV+/XrcQERFFHCwrffv2bb1H3oRBqJcrWrSoqlatmurWrZsyDEO3EhERRYwkSZKo8+fP6z3yJgxCSQ0cOFAdOHBALVq0SLcQERFFjIQJE6o7d+7oPfImDEJJ5cyZU7Vo0ULqhr548UK3EhERhT8God6LQSiJ3r17y+zEWbNm6RYiIqLwlyhRInXr1i29R96EQSiJVKlSqbZt20o29PHjx7qViIgofMWPH1/dv39f75E3YRBKDt9//7168uSJGj58uG4hIiIKX9GjR1fPnj3Te+RNGISSQ4IECaRm6IABA9Tff/+tW4mIiMIPuuM5JtQ7MQglX9q0aSPBKLrliYiIwttbb72lnj59qvfImzAIJV/wZjB48GA1Y8YMdeLECd1KREQUPmLHjq1vkbdhEEqvadSokXr33XdVp06ddAsRuZuXL1+qf/75R506dUrt27dP7d27V75iO3funHr48KE+kyhyRYsWjROTvFQUg8vkkAt79uxR7733nlq9erWqUKGCbiWKGLlz51Yff/yxrORFAcNb+NGjR+VvFgHmyZMn1Z9//injuhGIBuTtt99W6dOnV+nSpVO5cuVSBQoUkFXUULeRKKJcvHhRXru1atXSLeQtGISSv5o1a6Z27NghH3BvvvmmbiUKfwxCA4Z1tlesWKGWLFmiNm3aJDUWUeYGPRgZMmRQ2bJlky1p0qQqXrx4Ms4bM5Dh0aNHMgkEGzKiqA+Mr4cOHZIhOFiwIkeOHKpy5cqqdu3acjH6xhtvyH2JiMISg1DyF7rysmTJorp3785ggCIUg9DXoXwaeiYmTJig1q1bp+LGjavKlCmjPvzwQ1W6dGmVPXt2fWbI3b17VzKqGzZskP/r4MGDKkWKFPK7aN26tbwfEBGFFY4JJX8lT55c9erVS/Xv319duXJFtxJRREKWEyuaYUGJevXqySSOX3/9Vbrbf/vtN9WuXbswCUAB2dSyZcuqgQMHqgMHDkiGtGPHjmrlypUqa9asMjQHGVjmLogoLDATSgF6/vy5yps3r6wvjw8+oojATKhPl/ugQYPUTz/9pJIkSSLB4GeffSaBYmQ4f/68ZEkRmOICtXjx4ipjxoz6KIUl/J7/+OMPvecDQyJixIghwyuQkUZmGu/NzgoWLKj+++8/vfcK7ouLF4wBfv/99+W+fsf9+ndfvzA0a/fu3XrPt7/++kvVrFlT7yn1v//9T5UrV07v+YYsO4Z8+YVJSnHixJHXVvXq1WWLGvVVvmzs2LHSGwD4GZCxR1UXv/r16+f4zMqcObPcjhIliuxHlG3btqnGjRurZcuWyXsauYAglCggmzZtwoWKsXHjRt1CFL5y5cplDBw4UO95F/PCzzCDT8MMGowUKVIYY8aMMZ4+faqPkjcoU6aMvOcGtJkBlTFt2jR9Dx9msObyXL9bsmTJDPNiQt/LR1DvawbC+h6v69Gjh69zq1atqo+8buvWrb7O9W8rUaKEcevWLX0vw7h//76ROnVqx/EffvhBH3nl1KlThhnMOs5Zv369PhJxzIDc8TjNizfdSn4xE0pB0rRpU+mew4YrVaLw5K2ZUJRRQnYIs4XND1fVoUOH1yYFYuLQ1atX9Z6S7A4mHSFD6vdcjOt2zm7hXGTTnCcqWTBRKaCyTcikuZo1b83Cx/dEBsuZ38cK+P/xffz+/xjyg48jV/8PCpnfuHFDbidOnFjFjBlTbocVfG88d8gy2gHG+ZoX/XK7SJEiksHE7/Hff/+VDKlV9QCPGdlHjNsFZDytY9WqVXNk/vB7uH79umSyLZh4hqEVFv/u6xd+f656xXDftGnT+hq6hQzmhQsXlBmM6ZZXkCU0A0y5jd83buN74HdtTZazIJs4a9Ysvacks4gMKeA5wIQ6VHmw4GdbtWqV3G7SpImaOXOm3I4oeHzIZluvfTzvmDRILiAIJQqM+QZmmG8UxpAhQ3QLUfjxtkzos2fPJIuE7FaFChUMMwjVR16HDAveul1thQsXNo4eParPNAwzKHB5nhlwGOYHtWEGX/pMwzAvNF2ea20tW7bUZ75y+PBhx/GaNWvq1lf8e6zIUpkXGYYZJOszDcMMNOSYGXAZZrClW320b99ejiVJksRXViy0Ll++bBQrVky+N557ZN2cH1Nkcc6Erlu3Trf6wO8X78XW8Z9++kkf8Z3NREbdL2ROrePYHj9+rI8Eft/ArFy50nF/ZPGt264yleCcCS1atKhufeW3334zzADTcY4ZtOojPmrXru04ZgakutUwzMDa0W5esPh6jYc380LOqF+/vvzf5kWZkT17drnNTKj/ODGJggRX4pisgOzMpUuXdCsRhRaylch8YeznlClTZIxbmjRp9NGAYRwfMmWo8Qm7du1S5cuXf20JxEyZMkn9T2yoBYrMGCYbValSRZ/xCv7WrXOdN1cz4ydPnqxv+WR//GY9nTk/VmS85syZI2MaMSMfhg8fLllOZCWdlw0+fvy4Gj9+vNweMWKErDMeVlCCChk/MxiV7DO4ek7sBOPz8bgtyIQGVYMGDfQtH8ishpVJkybpW0qNGTPGkUlFO15vwYWf8ZtvvtF7SvXt21ff8jF69GhH5nrp0qWS+cQchi+++ELaYNiwYTKeOiBmIC6vr8A2VKQIDHoyfvnlF/kbNC/QVKFChfQR8pcORokCZb6RSKYFmRrzQ0S3EoU9b8mEmh9aRvLkyQ0zGDP+/PNP3Row5+wiblsWL17saDcDWWmzMqF+xw7OnTvXcS56OcDKhOJrUGCcqhkQyn3wM+Brv3799FEf/j3WkydPGqlSpZJ2M2jQrYYxffp0aUNWDllWKFu2rLSZH+yyH1Z2794t39c5w3bgwAFp27lzp26JHAFlQgGZP+t49+7ddWvg2UznbKUZwOlWH873ffLkidzf1ebqvR+vIWsMJsZB4rPCvLByfD/zAkWf+UpgmVDAuFXrnLhx48r3dTZ27FjH8YwZM8rrz9rHcxgU5oWT4z4Bbci8Bub06dPG9u3b9d6rvylmQv3HTCgFmfkmJVeE69evV+aHmm4lopBAoXmMg8NsZYzzwwze0KhUqZKjqHxgSyCikL3l3r17+lbwLFq0SGbwY7Ul9JLAxIkTHeMKA4JyTz179pTbZuDpKPmE8bBm8CDfo3379vIc4f0GY0Dx3uMflLBCptXV9tVXX+mzfMNCHBh/WqxYMd2iVL58+SQbizqpdoGxusiWY2wlFhTo2rWrZP4sqFLgSpcuXeRn79y5s5TxQmaxRo0a+qgKcFlmzDbHmF1XG7KcfmHMpTX2GOM38VnRokUL2YeAfncBwThPK6OK1zSeC2dt2rSRLD1gHKn1msI4UWsGfWAwHhVZ/MA21MsOjNXjQMHgE4sSBZ35piYZECuDQhTWPD0TOnv2bMk8ff3118HuVXDOLppBiYyRRMYIGUWr3Zr5bGVCmzRpYowbN84YPXq0PK/WWLXcuXM7sktW1gZjMpGZ8rshy+PMylB+9913xoMHD4xYsWLJ/qpVq/QZ/mdCYd++fY5jf//9t271ySZZYwHjxIkjX1EtICDLly+Xn8vVhrGFrnzzzTfGO++8o/deMQNko23btnovcjhnQgPazKDSV3bQOZsZ0NahQ4fXKi4E9b6jRo3S93jFvKhxHD9x4oS0PXr0SLKXaMP39jvOOSiZUHAeX2oGmrr1lWPHjhlmcOw4B9uAAQP00cjFTGjgGIRSsOHNBW/UmEhAFB48OQidOHGifDD1799ftwSPc2Dnavvkk0/0mQFPTKpYsaKvwND6wPRvQ1e15fz58zKRB+1nzpyRNgS62EdgZAkoCEWXvHXM71AEPDfWMQxVQDdwWMNkpzx58ui9V9577z2Xk7AiUmBBKIK6hg0bGg8fPtT38OEcSOICA0G28/2qVKliXLp0SZ/tm/N9e/fubfTt29fl5jegQvezdb93331Xt/rA82gd69Wrl271EdQgFK9V67wrV67oVt+6du3qOAcBMSb62QGD0MAxCKUQsd5AFi5cqFuIwo6nBqHz58+XD/vQ/GzOgR0+cBGkIXDCbPcpU6YY//33nz7zVRDaunVrY+TIkUbOnDllHzPC/fZkWB+YdevWlUDF7+b8wY7sJ85NmjSpZFixIfhFG4IGK1gIKAi1xmRiw4WtM/xfVjb0l19+0a3+W7NmjTF8+HCX29KlS/VZviHQSp8+vd57Bc9px44d9V7kcA5CESwj+4jxj/j9LlmyxN/qCc6BpBW4b968WWaJW+3OY3CdubpvUDRv3txxP2Su8ZqzNmvMMLaUKVP6em0GJQjFa9Q6B68rv9lby7x58xznYXZ6cFy7dk0eZ2Abfs7gYhAaOAahFGItWrSQN5a7d+/qFqKw4YlB6B9//GHEjBlTsjahEVBg55cVhFoTk1BCBoEX2hCQOgd/1gcmvgYE3b/OxcJdbciYQUCPFYEV2vG9XLG695e5mNTiFybn5MiRw+XmX0A5adKk1ybnAMpARfZrzzkIdTUxyT/+BZJr1651tGMbOnSoPvJKSILQe/fuOX5PQdmcLwiCEoQuWLDAcY7fLKuz0AShGM6Ci7jAtm7duul7BB2D0MBxYhKFmPlGJhMKgjJgm8iboQRQnTp1ZGKIGeDo1oiHgvIojYTJHseOHVPffvutPhJ0ZkAjPw8mqQwYMEB+HmuzSgehLE9AE5SOHj0qS5ICJs2EVv/+/eXncbWh9JUrZmAhk7L27dunW3we182bN1XhwoV1i2fA0pnOE5Hwez958qTeC7mff/5ZmRcychslvMyg67WtZMmSchyCM0EJk5Cw9KalefPm+lbYSpQokZQ2C2yLzL9bT8YVkyhUMGsQK1dgBitqHRIFx4sXL1TDhg1fm/WK2pGY4ep3TegKFSr4qh3oDp49eyYfxJjdu2fPHhUrVix9JGSwhru1Osxff/0ls9P9884770j9S1SzcP4Q//LLL6UuJ4JRrAOO1VwwMx2znPH4XNVWxIx2BKB169ZVv/32m6pVq5ZauHChPuoDq+Wgxik+VlCHNHv27I7HmjJlSlltDYGfVZ8SgcuRI0dkFR6/MHMdAQ7eY6pWrapbwxZm4uM1uGDBApnRjdciZqKjxqM1KzsyOK+YhPqUZcuWlduBQXUEK/h//vy5r9XtUA8TK5FhFjkULVpUVi2yfk7n+2KWOZ4P/+C1kiFDBgnWrXXkUR+zXr16ctvZtWvXVKpUqeR5xv+F12/atGl9rZiEFZVatmwptzHLHvfBqkxW5QbMOsfvxL+VsubPn68aNWokt+vXry/BsR1Yf1P4u+eKSf5AEEoUGuYfmmF+EMqavkTB1adPH0dXWmAb6mq6m6+++kpmCWMiTlgITXe8Bd3w5ge7HMufP7+M1Wuquw7929C1jdVnrJnIGJvoSrly5eQ4alk6P1Zrw2xnzM5H9ya6c/0TnO74kMLYyvfff1/+HzNAkvG1fqsARIaw7o63YHyodRwbhiRYnO8b2IbHhJWbrP348eP7Wn3JL6whb52L8cTg3B0f0IYhX+aFitzHP6Hpjg9P1t8Uu+P9xyCUQu327dtGihQpjDZt2ugWoqDDEo1Y4s76EPFvwweZu8HMYXy4Y0IS2RcmwCAgDW65rPASXkEooPyUdQ7+7jAxB4IbhHbq1Mmxj0lpAcEEVutca4KSf0EoLgYQ1BYqVEiqJODzJTAMQt0Xu+MpTFjd8iguja9EwdGnTx/1/fff6z3X3K1LC93w+fPnly5nFHYnIiLfGIRSmDGvsGWsGAb3J02aVLcSBQ5jBDG20VpH3K/KlSurFStW6D330LdvX5m8d/r0aVmPnYiIfOPseAozw4YNk5mGrVu31i1EQYNZ21he0D9YltGdXL9+XWbT4nEzACUico1BKIUZzFxE+ZdVq1apcePG6VaioEEJmfjx4+u9V5AFtWs3/JkzZ1S3bt2khItzSSIMLUiRIkWYlB8iIvJU7I6nMPe///1PPoQPHjyoMmfOrFuJAterVy/pxnaGAA81He0IwweQxQUEndWqVZOyM61atZLSLA0aNJBj5BrK6mTMmNFXPUgi8h4MQinM4SWF4sgPHjyQWnDOteqIAoKxoahtadUHrFSpktSbtDPUv7x69are84F6iChOj+Lt+BmsQJV8Q31O1OZEvVPUFyUi78LueApz+ACeMmWKrMiBzBZRUCFY+/zzz/WeT7e23aEgu1+4EEOA9dFHH8kkPVyUTZgwQdrpFRS8x0XHqFGjdAsReRMGoRQu8MGCpfuwNN+mTZt0K1HgsJpPvHjxVMWKFd1i+cRs2bLpW65h5RqsKIYeAVyg0StYpadNmzZq+vTp8jwRkXdhdzyFK5RtWrp0qTpw4ADLNnkhdK9funRJxk6iyxVfsaH7GnU0sVwn9jGpB0s0Pn36VO73999/yyQlLN0IcePGlSAOk9/QjqUl8RUzz5E9xWsrYcKEsjwglgR0tQxkeBk7dqxq37693nMN65d37NhR75Gz27dvy3haZI4xppaIvAeDUApXCCwwsxnBwerVqyXzQZ4D2SvUwTxx4oSsCX3hwgUJNnEba5ZbYzsB2U2sSY4yXggcsSFYRDCJIBOwXjwCT6wfbY0lRqCKtykEqghYnzx54ghmrYDWagdkG5MnTy6BDQrFo/4o1i/H15w5c8prMSz9/vvvsga5f4YMGaK+/vprvUeu1KhRQ373WH+cKLLgfQYXx3gtUsRgEErhDgFKoUKFVJcuXThG1I2h9iUy2vv27ZOvqH5w7tw5CQ7feustCfQwDAObFfQhK5ksWTIJCpG9DE/Xrl1zZF4RBPsNipFdxdsdHkfu3LllNSOM5yxQoIAqWLCgZFlDAv8vfj5XfvjhB7cY1xrZZs+eLfWFccGB1xLZx48//qjmzZunZsyYofLly6db/bd//375m3IneF9AOTXMZcCFda5cudSRI0f0UQpPDEIpQsydO1c1adJEsqGYpEH2hqwi3oQxnhfLZaLKATKOyGSj7BYCOGQV8+TJI/uZMmWyfRUEdPUfPnxYMreHDh2SIPr48ePq8uXLKnr06CpHjhyqSJEiqnjx4hKUBjbW0xmGAiAAdvbNN9+owYMH6z0KCLrkMaQCy/+imgDZB4aaYMjJ1q1b5W8jIKiZi9e8c81cd4DhMqhTjN4T9GrgApplwyIGg1CKMC1atJClF5FFC+suUQodfGggMFu7dq1at26dBJ0I2lKnTq2KFSsmHz7IbiCDaHWde4pbt27Jz4sMzs6dO+X248ePpfQSLpiwlS1bVjK6/sFztGPHDr2nZPwnPtgo6DAJDTVWUWeY7CM4QSguTHFh525hRd26dWXJafz9v//++7qVIgJnx1OEQRkWZDtQwNvdrpQ90f379+WNFwXDEWAhyMTvCPUap06dKl3Y6NqeP3++6tChgypatKjHBaCQOHFiGZOIJTYRhKO+LQLSL774Qrrw8bOjux1dkchu/vHHH6+9fp3LNKFQ/ciRI/UeBRUCHFQRIIpo1nhyZEApYjEIpQgTJ04ctXjxYunmxVg5injo9pw2bZqqWrWqdCFjiAQm9XTv3t3RNY3jqG+JsZ3eKGrUqDLcAAEngtKbN29KdrR06dIynARd9gjaP/30Uzn+4sULRxDauHFjqQfKUkzBhyAU48cxKY1cw8XP6NGjpXwZxl2jOgRej3it4uLJGRYBQLkzjLNFlRKMc0R2HxUIdu/erc96BRNyMP4T2UxMIMT/sWbNGn00YLhg/fDDD+Ur4PZnn30mt5cvXy776AFDVhUXdMh6W2Muw/NnQmazZs2ajrHp+BvGGG1rwiR6L/DYcGEJ9erVk/2zZ8/KPmBIEi5SrfHuuL19+3Z99BXcF495y5YtMgcCXfsYnkCBQHc8UURatGiRYX5Iy1cKf48ePTLmzJljVK5c2XjjjTeM2LFjG2aQacyfP98w3+T1WRRUFy9eNIYMGWKUKlUKfY6GGcwbFSpUkP3nz5/rsyi48Lzi+TSDFd1Czszg3PGaM4McwwzCjGbNmhmpU6eWtnfffVef6cMMzowcOXLIZgZERt26dY0CBQrIudGiRTPMAE2faRjmhZRRrlw5OZY5c2ajVatWRsmSJQ3zgszIlCmTtG/dulWf/Tr87mrXrm3EjRtXzsXtr776So6NGzdO2qzHjv8b3/fvv/8O15/JDDCNGDFiGGZQa7Rs2VJ+pjRp0si5xYoVk3PMwFUeqxmgSrsZCMv+X3/9JcfNoFw+q8ygXB6XedEu5+Lxjxo1Ss6xJE2a1MidO7e8H+A47oefhwLGIJQihXnFaMSMGdPYt2+fbqGwtmfPHuOzzz6TDwY817Vq1TIWLlxoPH36VJ9BoXX16lXjp59+MvLlyycfYtmyZTMGDRpk3Lp1S59BwREvXjxj9uzZeo+cLViwQF5j+Jt29vjxYwl+cGzXrl261SdgQ1v58uWNhw8f6lbD6NOnj7R//PHHusUwJk2aJG3VqlXz9f6A1zbasQUUhFoQHOJcZ1YQiqAM7z+4UDtx4oQcC8+fqVGjRtKGANmCYDtPnjzSfujQId1qyAU62qzgEw4fPizBZK5cuYwbN27oVkNu58+f33jzzTeNc+fO6VafIBTfo0yZMsb169flvGvXrumj5B8GoRQpcAWMK+906dIZd+7c0a0UWvfv3zcmTJjgeAN/77335EOAz3H4O378uNG1a1fJmiADg4zKhg0b9FEKipw5cxr9+vXTe+Rs8+bNRs+ePY1Lly7plle+/PJL+Xt37l2yAjYEU85wgYT2ggUL6hbDKFGihLT9+eefusXHy5cvHe8loQ1CEej5FZ4/EwJqtK1evVq3+EDgiPsj0LW4CkLRW4Q2V3/DK1askGOdOnXSLa+CUFz8U9BxTChFCpT6wYQX80pTxtGZr0V9hEICNTzNN3MZ+4QxU2bwKbPdd+3aJcsiojA8hS+MC8WYOoyrRd1LTPzC+DIs1jB58mTH5AfyHyaGYDIcva5kyZKqb9++UrECY7sxnhG1OzGB7tdff5VzMD7ZGcYm+y01hrHg4Px63Lt3r0zQQ7k1Z7h/QAsxBIfz5D1LeP5MH3/8sXzFWFO8H3733XcyRhTjOs3AOtB6tMeOHZOvGCuPv1/nDW3WMb+CU9qNTD6xKFHkwBUpuop79eqlWyg4cFXfvn17w3xDlTFSgwcPNu7evauPUmRDt2OHDh3kNY5MCcaYIVtNrrVu3dqoUqWK3iO/pk6d6hijaW0Y82i1mYGbPtMna4jhDa7gXGQtAd3a2EcW2pWhQ4fK8dBmQkeOHKlbfAuPn8mC+2KMq/P3xvskHpMzV5lQa3xrQFuGDBn02T6ZUPNiX+9RUDETSpEKV6TTp0+Xq2EUtKegOXPmjGrWrJlkLlC/b+bMmZJBwuxMLI9J9oCsCMpeYQlTrAg0YMAAKew/bNgwZX7467PIgiVd/Rb9Jx9jxoxRLVu2lKWQ+/TpI7POMRsdvSC1atXSZwUfVgrDYg3IRLrid4Z6SKHXy6/w+pksqP/5559/SsZy+PDhUu8XK5xhZv2kSZP0Wa7htYjnBmXasFCHq82aVW9x9TNSwPiMUaSrX7++vAF98skn0n1M/rtx44aUOTGv+KW7feHChbLyD8qDcF1++0LJG6zAgmAUdUf79+8vwSjKObEk0Sv40MdCAfQ6XMwASgaha7lKlSqOMmpWaaSQ1F9G9zbeT/755x95f/HLVZezf/C9giO8fib8TS1dulT9/PPPso+hAOjix0IcKLMGeO8MSJYsWeS1iIsilJVy3vBeu2TJEkkGUOgwCCVb6NGjh1z5Vq9eXcbUkW94M0QQgzp6qN2HcVOou4fnK7hv/BR54sePL2N3saY9VhDD+F0sfbpo0SJ9hnd78803pV4lvQ4ZPGTaUH/S2YYNGyQggpBe0GD8pGEYkgxwhiVusaBFUMWIEUO+BnX8c3j9TFhC+PPPP5e/sStXruhWH7ggBGR/A4IayoBan34DYdQaxVj7VatW6RYKKQahZAsIpKZMmSITE7B2NLsqX8EVPbp1sZwhPiSQmcAqRww+3RcWbkDXPDIpKNxdp04d9cEHH6ijR4/qM4h8q1y5sgRDuFhH8LNs2TL19ddfy4WoNTEHRdxDAgEbCr+jaDwWqsCkIAwZQdF4vFaDKmXKlPIVjwkrkAUmPH+mrl27ysU7loJFtz+6+vEVxevx3onMaEAQhKK4Pd5/8beJzycE5AjYx40bJ0OhAvseFAQ+Q0OJ7AH11VCoGOU1UMbJm5lX8Ib5Ziz19dq1a+erVh15lr1790phbiwm0L17d1lgwBv98MMPvsrs0Csos4bi7PjYtjZM1Bk+fLiUB8O+eQGvzw7+JB6UOcL3x/sNjkePHt349NNPZTId9oMyMQkLDVgF4VGmDO/h1sQkv8XdIbx/JtQ5tUonYcPPhglYfhdKcTUxCVAz9dtvv5UFPpy/R4MGDV4rK4X/J1GiRHqPgioK/jGfWCLbwHJuxYoVk+6OwYMH61bvgcwArtixlCYyoOPHj1fmB7M+Sp4Kv/eJEydKdz1KaiHzUqpUKX3UO3Tu3FnGOm/cuFG3kF8Yo2gGSypVqlTKDHx0a9gxg1EZEpU1a9ZAyxj5B2NLMb43qFnU8PyZUOIJk4uw/C7GeZoBpT4SdAiTMIQGZdcyZMgQou9BrjEIJVtCFwi6aNA9hJmM3gIz3NEdhrp96M7CmEGMbyLvgXFyWJce3Yf4/aPbPrDxa54CM6UxS3vx4sW6hYg8GceEki1hTBCyoJhJjHFC3gDjsHLmzClZAcx479KlCwNQL5QsWTKZlDFnzhzJhmLM6MmTJ/VRz4YMnDWukIg8H4NQsq2vvvpKsqANGjTw6NJNmA2M8lQoVYWge9++fdIVRt6tYcOGMjQFM+oxHAMVETwdSlhh1S8i8g4MQsnWUEcO3fJVq1b1yJpsyPxg6Tp0vaJ+HbperTInRBgjh3I16JZv3ry5dNN7agkjjIlFEIr6qUTkHTgmlGwPH7pY/xcfUFu2bPGY7jqM+6xWrZrUyMMYWKyf7I6sOn4hGToQmvuGBOoXhmSyRUjvF5bWrl0r2VEM2cCYSaz17UlQkxITR06cOMH1t4m8BDOhZHvIDKKYN4KAChUqqLt37+oj7gurdSADivpz27Zti9QAFEMd8ubNK9uxY8d0a8AwgxnVC9B1igLj+N1kzJhRZjdjYk1AgnvflStXOh5fYNv69ev1vXxgZixmnCOTniZNGpmxi/8T4ywx6e358+f6TN/wGuvVq5f8fqzl+7AcKuoaImsdGcqXL692794tywWifiOCNk+yc+dOmU3NoSieB71ZyOITvQaZUCJ3gLpsZuBilC5dWuq3uSvUrkOtud69exsvX77UrZGnRYsWRrRo0aQGHuqRBmbgwIFG1KhR5fzs2bMbtWvXNswPGUd9wLhx4xpmsKTP9i0k9501a5YcM4NHqcMX0LZ06VJ9L0NqFJrBp9wXNQ8LFSpkVKlSRb5iH+3vv/++8eDBA30PH2aQZ6RLl06Ox48f3yhevLjUEUR9QbRh69Chgz474qFerBlES83EI0eO6Fb398knn8hzTZ7l4sWL8jdjXkzqFqJXGISSWzl9+rSRJEkSCV7csZj94MGD5Q3ZVeHmyHD//n0pxFyxYkUjV65cEgT6DcqcjRkzRh5/8uTJjQ0bNuhWH8+fPzcGDBggxxMmTCjBnLOQ3tcKQlE4OzhmzJgh93vvvfeMy5cv61Yf+GBEO4536dJFt/po3ry5tLdu3fq152Lnzp0S7OL4qlWrdGvEe/z4sQTYKNy9a9cu3ereMmfOLK8B8ixDhw6V9+xnz57pFqJXGISS29m/f798+CJIsEMmMaiQ+cSKONOmTdMtkW/KlCkSUI0ePdro06eP3J44caI+6htWcIoZM6ZkEU+cOKFbX9ekSRP5PlhpxBKa+4Y0CK1Xr57cz7+VXnBBg+NYocvZ22+/bbz11lv+ZtsnTZok92vcuLFuiRz4UMfKLcjW/vHHH7rVPZ05c0ae0z179ugW8hTo8fj666/1HpFvHBNKbid//vxSR3H27Nlus3YvZr2j+Py8efNklrNdoA4lVKlSRdZEhrFjx8pXv+bOnStrMTdt2jTAiSM9evRQHTt2lDWbLaG5b0hZk55Qd9UVzMIePny4jP10hvthe/jwoW7xrUaNGmrQoEEySSgyoYA9aoli0p41XtRdYaJV8uTJVYECBXQLeQKMN8dEMyxCQOSSDkaJ3M6aNWtkfeJu3brpFnuaOnWqZHmQQbOTkydPyuMqVqyYbjHkNtpcdfGWLFlSjoUkkxua+4Y0E2pledH9j+f+9u3b+kjAkOHE/bCGOcaxPXnyRB+xJwxLwfAUdHkiu+uOME63VatWeo88Bcab42+fyD8s0URuzVrec8iQIVJL0W7MQFlmVCNz9vXXX+tWe8CKTHjeJk+erMwAQNrMgFluN2vWTE2fPl3aLOnTp1fnz59Xf/zxh8wuD47Q3BcZ7yZNmkgGvFKlSrr1denSpVOtW7fWe2YUab614X7IFkLUqFGl6HuZMmVU2bJlZea7q9JQWDu7dOnSUigeMDMemVncr1y5crbM1qGMGX4mrJGNWeZvv/22PmJ/qMiQK1cutXnzZqkYQZ4Ba7WjIoV54RnpvQZkYwhCidyZGSzJjGvMOreT48ePy0Sfjh076hb7QPYMGUKM07x7965u9ZmoFCtWLBkT6TdzGCdOHMkQ/vPPP7ol6EJzXysTGthWtGhRfQ/flixZIpN48HM5n584cWLDDMJdTnBD9hPjZDF73prNb21Zs2Y1li1bps+0D8yaz5Ejh2EG125VPaJz587yuN1pfDcFDpMw8R7jzpVMKPwxCCWPgO5WlD0aMWKEbolcDx8+lJI+di0nhVJGCKhq1qwpwYvzhq5dHBs+fLg+28c777wj7SHp8g3Nfa0gFI8Vs9P9244dO6bv4Rp+D5s3bzZ69erlmBmPDZOhAvLvv/9KIIuLifTp0zvuh+5+uzl16pRM2gvu0IXIgoseVBuwS7UIChsvXrwwMmbMKH9rRAFhEEoeA5lQBAcjR47ULZGnWbNmEnjdvHlTt9hL9erVHcGUfxsyfs6scZ2rV6/WLf7z+3OH5r4hHRMamE2bNsnMcnxv/+qa+oUPVwRMuA9KSdlxvOiiRYvk8c2ZM0e32BfK9+B3EFBZMHI/ixcvlkogqO1MFBDOjiePgVnV5oea6tSpk5o0aZJujXgYA4VxiGbwZMulFa9fv65WrFgh4wa7d+/ucsOa5adOnVK///67vpdyjMfEONeAmB888r2xghFmmUNo7hsSBw8eVNmzZ5fZ+P4pVaqUaty4sdy2ZpajWgBmzY8fP172/cK40g4dOsjSmXfu3FFnzpzRR+yjZs2a6quvvpLHefnyZd1qP6iWYI3ljh07tm4lT/DTTz/JKmXuuhQxRSAdjBJ5DIzzQ9c8ZqVHNBRZR4bsu+++0y32g+cHf/oYi+efvn37yjmotWk5d+6crKyEca7Xrl3Tra9D8XfcF0XfLaG5b0gyofg94D5YZenevXu69XVYIQrnobA9/Pzzz7Lv3/hSC8Yw4rwLFy7oFntBhhbDQcxA27ZjLbF6FsblOo9JJve3b98++dvYvn27biHyH4NQ8kgTJkyQQDSiJythPGXu3LltPRg/W7Zs8iGBov/+QTcanj8Ejs6TiRC44r4oX/T333/r1ldmzpwpxzGxye+SkiG9b0i747EcKO6HJTcx1tUvlPhCVzACVSswRvCWIkUKuV+PHj1eW+UFAZ0VxOfPn1+32hN+v1gcABP37Aa/f1yQDBo0SLeQp0CJMywrSxQULNFEHmvMmDHSJfnjjz+qrl276tbws2zZMukK3bJliypWrJhutZedO3eqokWLSlf18ePHdatrFSpUUGvXrlX9+/eXLnpAF6oZaKvVq1crM3hTderUUWbQLV3T+LlRgskMXtVvv/0mpbOchfS+VommlClTBljoHvC89+nTR25j2EGRIkXUuXPnVKxYsaS0Eso8oZzR0aNH1fbt2+U884JFmQGu3IZt27ZJuSPzQkIlSZJEvfvuu/I4r169qvbt2yfFt+PEiaM2bdokJZ/s7Ntvv5WyWxhakSBBAt0a+erVq6cOHz4sG14L5Bn+/PNP+Rt19fdP5JKEokQeavLkyVJip1+/frolfGDtc6x93bJlS91iTygIjj/7oKzRbXVNp02bVibkWJAdxISSDBkyyHFrQ+a0fPny0h3nn5Dc18qEBmXDhCtnZoBrfP7557IUp99zka1Zt26dPtM3zDJHJhUlrJzvg8UR0O4uReHR1Z0sWTKjffv2uiXyodIAnssNGzboFvIUKE6fN29eltuiIGMmlDze/PnzZUlKLAlpZcnC2rhx4yTbikwAlh/0FihIjclEWEISE3reeustfSRwoblvcOFt7sKFC+rGjRsyucgMrINU0B3ZUNwPBeyR/UTRfXx1J5hs1bZtW3X27FkpHh6Z8Dwiq1y3bl2ZvEKeAz0F77zzjkzIbNCggW4lChiDUPIKCxYsUB999JFq166drBeObt+w8vz5c5UxY0b5/uj6J7KTFy9eyIpEWCEKF0uRBY8D69xfvHhRhjW4WzBPAcPQp40bN8pQF1zoEQUFXynkFZB5WbJkiZo4caJq0aKFfCCGlRkzZkiGx47LhhK98cYbsmQslmFF9jmyYGwxxiTjgpABqGdBlh1lzdDbxACUgoOZUPIqmHRSpUoV9eGHH0o3fYwYMfSRkEOWCTUnMRGKyI4wGQtdpe3bt1c9e/bUrREHdXMxuWzu3LlcR9wDtWrVSib6HTt2TC56iIKKlyzkVYoXLy6zmhGMVq5cWd2/f18fCRnM6MYbL7r5iewKF1tYzAEXSghIIxK6aNH7MGDAAAagHuj06dNq5syZ6vvvv2cASsHGTCh5JXQfYXxavHjxZPWgkE4mQmkfjG/DRmRn//zzj6yEtWjRIlW9enXdGr62bt0qPQ9YuWr06NG6lTwJytJduXJFVh0Ly7H25B2YCSWvhIlE+IDE0pCoJYlZ7cGFjBLGtyHLQ2R3uNAqU6aMDEOJCFjyFUs3IkgZNWqUbiVPgvdQjLXHcskMQCkkGISS18KHMt5E06VLJ4Horl279JGgQVc8Cq2j6DqRO6hfv75auXKlVHQIT/PmzZPFDjAhEBP3GKB4HnSidunSRZUvX16VLFlStxIFD4NQ8mrojl+zZo2qVq2aZInQVRlUixcvVu+9955KkSKFbvE8Dx8+lGwxeYZy5cqpu3fvOlaLCmsITAYOHCh1eVEtYvLkyQxAPRQuNPbs2aOGDRumW4iCj2NCiTQUsv/hhx/U//73vyCVW8IykBhXigkXdoPlJJ2DRwQCmDSAJRITJ04sj71NmzYuA2hMJEH3GiZwPXr0SEquYMnMwoULy/ODagDODh48qJo1a6b3AoZlNceOHSu3EfxbtytVqiSPx53dvn1bqiR8/vnnqnXr1rrVfqyatn379tUtYePff/9VzZs3l6VeMf6zZcuW+gh5mgcPHqisWbNKLxAXHaBQQRBKRD4mTZoky3x27tzZ11KVfj1+/NiIFi2asXTpUt1iL/gZ8Ocd0JYoUSJj//79+h4+zA8Ul+damxnMGrNnz9Zn+9i6davLc11tWJrTMm7cOEf7p59+qlvd05MnT4yyZcvKzzJkyBDdak+ffPKJYV486b2wYV5QGKlSpTLSpElj7N27V7eSp+ratauRJEkSWRaXKDTYHU/kxPyAli75CRMmyFU+rvhdOXDggGQa8+XLp1vsC0MNMBsaWducOXPqVp/MHSZVme8Dsn/58mVHBhjZT4wfRFYY3avvv/++tOPczz77TM51JWHChPJ/+bchE+ppjh8/LmPi1q9fr1vsDVlwM1DUe6GDZVCRBcf4T3T1Hzp0SLLw5LlOnTolq87hfSFBggS6lSiEJBQlIl+QzUmZMqWRO3du49y5c7r1lcmTJxvx4sXTe/bjnAl9/vy5bvUxd+5cxzFshw8flnZkga22tm3bSpvFDLgNM7hwHJ8xY4Y+4jsTWrRoUd0aOE/IhPbu3duIHj26PN+FCxeWn8XumVDr93Xt2jXdEnxPnz6VrHnixIklA7pixQp9hDzdBx98YLz77rsB9hQRBRUzoUQuIJuDbFHs2LFlLCSWG3SGAs3ZsmXTe+6lUaNGKlOmTHpPqfPnz8vXaNGiyVcwA29fM6gxnhSZj+7du8tYQlQUiEhm0COZWax0hQ0r8FiuX78uWV60ly1bVp04cUIfed3jx49lecHAtnXr1ul7+A+ZcBToTp8+vYyfdZcxrRjLB2fOnJGvwYGyZObFisqSJYusvISs+MmTJ2XhB/J8P//8s9qyZYu8BtBbQhRqOhglIhcw9rNBgwbGm2++aUyfPl23GkbLli2N6tWr6z37CSgTiqwmxoNax82AS9pPnTrlaMOWNm1aGRu7du1aGfPoH7+ZUPx//m3OgpsJXbBggeN8ZKGvXLki7fg9WO2tW7eWNv9cvXrVcW5AW+3atfU9/IdMkBkMOzJC06ZNk/vaPRP68uVLw7yoMBYtWqRbAofnDVnf5MmTG+aFmfHFF18YN27c0EfJG9y9e9dIliyZvCcQhRVeyhAF4K233pJSJMj6YPwkxkyaQYe6efOmSpIkiT7L3q5duyar5fz111+S0cXYTIwHBSznaI3hQ3ara9euchsuXrwoY79QBxBjPWvUqKFWr16tj7q2Y8cOFT16dH+3o0eP6jODD2N0rYUB7t27J+ugowbl0qVLpQ2Pf8SIEXLbP/g5li1bFuiGjG9gkAnCLHN3ywihUgIqJNy6dUu3uIbXyKxZsyTLjOoIqGSAWf/oBcDrwl1e/xQ2UPUhZsyYYV5VgbycDkaJKBCLFy824sSJY5QrV07GR3777bf6iP04Z0ID2oYNG6bv4QNZUoz1c86U+t26deumz/YRnNnxR44c0fcK2ZjQBw8eGJkyZXLcDxlqfDUD3Ndm+kc0d8mEQvbs2Y1Ro0bpPR+Y6WwG4IYZgMuYP7yGkPWsV6+esXz58tcy2eQ9NmzYIJUxOPaXwhozoURBhEwgVknCuvNmMCXjJN1V3LhxVb9+/VTnzp11iw/8TB07dpTM6apVq2TMHzKMzn788Uc1ePBgvedbmjRpJFPi35YsWTJ9ZshgjO7cuXMdzz3GigJqtebPn19uU+DM935ZchbVILBIA34vyBLXqlVLlmHECmL4imzoL7/8Iuu/O48ZJu9x//59qYDQpEkTjv2lMMdi9UTBhA9mFGxH91S3bt10q70gSHv58qXcHjlypOwjiMDwAhSoR8klrBblClZJQrDnDGVZOnXqJAXmAQXPrYkt27ZtUyVKlJDbRYsWDfJqPJgA1LZtW7n96aefSlmsoKpdu7ZjdSsU4L969aoEUYHBJKbs2bPrPf9hyMK0adP0XtBMnz5dhgsMGTJEff3117rVnjCpDgE8XseYWIWvmLD07rvvvva7J+/WtGlT9fvvv0v5rUSJEulWorDBTChRMOGNGOvOY6awO2jXrp2Mn0RWExkNjPF0FYBiCdI4ceJIlhT1H50hQMH4QMuFCxf0rYiHoBdLploQTOHnCwoE4qgMENiG368nw/hcZLwx/hUr3uAiAKs9MQAlZ5gNj0oUs2fPZgBK4YJBKFEIYGIHJid5klSpUkkWFJ0jKFLvl/OkosialIKuQXQLWh04VrFsTB7DFhh8kO7atSvQDeWoPBkWYcAkEyL/oNcAFyro8cEFClF4YHc8UQhgVjTqRGK8nB05d8c/f/48SOP5kF3EmEALfkZ0S8eKFUtqpqJb/+7du3IMmUesDw7O3fGpU6cOdM1w1NbEjHLn7nis4lO1alW57Yp1H2RyZ86cKW3I7GLN+Zo1a8p+/PjxZawuxqVGBnfqjsfvFMMNGjRooFuIXkFYgBWwMMwFf/u8YKFwgyCUiIKnU6dORunSpfWe/TjPjg/OrOZ27do57ufflilTJl81IoMzOx6b9XicZ8cHtuE+znVCUcP03r178n0aNmzoaC9VqlSkreTiLrPjHz58KI9z/fr1uoXIt0GDBhlm4GkcPXpUtxCFD3bHE4UA6iZaKw15EmQ3Mfs8c+bMuuUVZBpRJxK1RiO6O/7vv/+WcYuWyZMny9hVwGN+++235fbmzZvV0KFD5Ta5hnqxgKw1kV/4+0ZdZPR85MyZU7cShQ92xxOFwIoVK1S1atVkjKKnTuZAQXgs34lxogjyMCPeKo1E7guTTTDjGb9Xll0iZ5iQiKExqJ7x66+/6lai8MNMKFEI5MuXT8ZNHTt2TLd4Hsygx89ZrFgxqRXKANQzHD58WDJcDEDJGVaCwzhw9HgEtzwZUUgxCCUKAcwkR71NdP8SuZOtW7eqwoUL6z0iH998843avXu3ZEBRqo0oIjAIJQohzAjfuHGj3iOyP9RUxWxnZLeJLBgHPmLECKkJGpTFHIjCCoNQohBC0XdkQq2lI4nsbtOmTfJ6xWuXCFDWDBMO+/TpE2CZNKLwwCCUKITwhv3kyRNZ0o7IHaAWbKFChVTSpEl1C3mzy5cvS63dDz/8UHXv3l23EkUcBqFEIZQsWTLp1kQXFpHdYdECjPdr1KiRbiFv9ujRIwlAsUTt/PnzZTEIoojGVx1RKHz88ceSXcIbOpGdYZ34f//9l6skkcyEb9iwobpz5468f2EFLaLIwCCUKBQaN24spYuwZCORnWGZ1CpVqkjmi7xbhw4dZDz7qlWruGgBRSoGoUShgFImWC8cM0u57gPZ1cmTJ9X69etlzX/ybj/++KOaMmWKWrRokcqdO7duJYocXDGJKJQuXryoMmTIoObNm6fq1aunW0Pus88+U3/88Yfe84Fsa4wYMaSAPArHYzZr3rx59VEfru7nn9mzZzs+gAoWLKj+++8/GRO2cOFClT59eml3Zp2TJ08eNWvWLN3qG95KypUrJ6uuALr7vv32W7nt18GDB1WzZs303itRokSRnxVLcqKgOn5OFMx3duXKFdWuXTu5jSzOmDFj5HZAsMznqFGj9F7AvvjiC7mwiAz/+9//1NSpU9Xx48d1S9jAc43viTqQeI7JO6EIfatWreRvGEOJiCIdglAiCh3zQ97ImjWr8fz5c90ScmXKlMGFYYCbGUgY5geKvoePoNzP2nbu3KnvZRhm8Olor1ixom71zTrnvffe0y2vW79+veP7YEucOLHx9OlTfdS3rVu3+jo3oM3vz3nixAnHMTMg160B69u3r6/vGdA2cOBAfa+ItXLlSiN69OhGrFixdEvYOHbsmLxeli5dqlvIG82ZM0f+jocPH65biCIfM6FEYeDs2bMqR44cauzYsZJpCA2US7GK4BcpUkTWbUcWEpNKkOl8+fKlHHvzzTfVX3/9JSs3gav7+WfIkCGSUQVkHq3vCQsWLFB16tTRez6sc8wgVO3atUu3+oZZ15hl6wzZYWRE/dq2bZsU+wczWJXHbsGkCfycyHgCMrRXr151lBVC17JVUBs/w6lTp+R2QPr166e+++47uZ05c+YAC3Ija1i7dm29F/7w8yID2qtXL/Xs2TOZJIJ13cNKrVq11N9//y3PKbOg3glDMSpXrqy6dOkifwtEtiGhKBGF2ldffWWYgZJx+/Zt3RIyzhnNdevW6VYfR48eNRImTOg4/tNPP+kjAd8vIM6ZUGwpU6Y07t27p4/6CCwTip/ZDIrlnNixYzu+V6lSpfQZvjlnQosWLapbX0FGuVixYo5zzGBWHwl9JrR79+66NfIhS5k/f355XOZFjJEgQYIwzYTidYDvvX37dt1C3mbt2rXyt9m5c2fdQmQfnJhEFEa+//57ydp169ZNt4Q9jJN0ztIhExrWkDVDVi44MMbUWjkKYyqRbQTMwA1KptKvaNGiKTM403s+NS7tAllvzDQPbDMDTH0P/6HGLFas6dixoyyniTG/YQVZ1bZt26rmzZsrM9DXreRNkAGtUaOGjHEeOnSobiWyDwahRGEEk2l++uknNXHixHBdRcma+AMxY8bUt3xD1zm68F1tzl3vzt555x0VO3ZsuY2f49ChQ3I7KDDxx4LubOdJR3g+ggvP3y+//CK3UYEAXYlhxbz4dvm8YEPXeGD27NkjwV1gW1BeA1g+88yZM/J8+/e7DKkffvhB3bt3Tw0ePFi3kDdZs2aNql69utSFxTAhDsUgW/JJiBJRWDHf9I106dIZd+7c0S3B49ytbgZixtWrV43z588bBw8eNLp06eI4hg2TWSxBnZhUu3ZtfQ8fzl3t//vf/xznFS5c2DAD1tfO8Wvv3r2O+7z//vvSdvHiRZkMg7ZEiRIZT548kXaLc3c8vne8ePFkMwNOR7c+tuTJkxv79u3T9/IRnhOT8FgDc+XKFWPZsmWBbn/99Ze+R9ClTZs2TLrjt23bJs8rJqOQ91mxYoVhXtQYHTp0cPwNE9kRg1CiMIbxkalSpTLq1q0bog+AoAaTNWrUMF68eKHvFTZBKMZi5s6d23HuhAkTXjvHr88++8xx/rhx43Sr78fjNxgK6ux4BJk///yzvpePyA5Cw1NYBKHW66958+a6hbwJqiCgykLbtm0ZgJLtcXY8UTjYvn27Kl26tMxC79Spk24NGudZ7q6YAaGqX7++QsFpzKS2ON8P3eGZMmWS235hZrjz7He/M9937tzpGEOYIEEC9eeff8oqO87nWB4/fizH0O2LOqb//POPSpgwoRzDONEmTZrI7ZIlS8r4UIvz7HgzYHLULMT/gbGlFy5cUMuXL3cMHTCDW9WmTRu5HdrZ8XgsqGfqCp7PL7/8Uu9FPAyJuHnzZohnx2M4QdWqVWXc6v79+2UoA3kP/M1hDHDnzp1lGAa74Mn2JBQlojCHmevISGzYsEG3BI1zBrF9+/bGqFGjjLFjxxpm0GksWbJEurpdcb5fSGbHO2c5W7Vq5fheZiDpbyZ0xowZjvOiRYsmmTxrwyx76xg2M3jU9wp8djzgZ7XOwazx//77T9oje3b8woULJWMa2DZ58mR9j6ALbSbUDNTl/qiiQN5l0KBBMgTmxx9/1C1E9seJSUThBDOeMSsVs9lDMkMcatasKes8Y6JLy5YtZaJBmjRp9NHwgyxKkiRJ5DZWV7Eykn45T0jCxB6sHmVtmGXvbMKECfpW0GCdc2RXATVSL1++LLcjGyagIcsc2BY/fnx9j4iBbDEmgaE2K6ookHdA9hvLsfbs2VNW2+ratas+QmR/DEKJwhGWiixQoIAEVOiqdheJEiWSoQQBOX36tNq6davcRmmhpk2bvrZh2IBlxowZjjJOQYHvjTJDgJnjKVOmlNuRrWzZsjIkIbCtbt26+h7hD6WecLEyevRouVAh7/DgwQP5feNCcenSpdIVT+ROOCaUKJzdvXtXffDBBxKAoW5fYMGU89jOdevWSdATFM73a9y4saxn759SpUqpMmXKyO2AVkPC+Ekr0ATnc5Bxscr/IFOLMjCu5MqVy1EzE2PWMP7TeUwo1n9HlteCmqBYLQmrL1lBKEo0rVixQm7/v707D7GybOM4fhe5ZBstJlJaZpRLtrtgJri02GaBmS3/ZLZQFEEURCkqagRplgilBCn1h7aYWLlAabZoTqmlKFrZYgtpFiRZWeTr9+I5805ijsv4zDnP+X7g4cxyJmbONJ7fue77vq66e0IJy4Sv/8LeWB6HuntCe/XqVfuz7w77Mut+P3nanz2hc+bMiT2+o0ePPqg9alVemCJGD1BWCN5888107rnnZp+RKkgsyks6qHYGix1nn332js6dO0fLpT3Z372ddb+uvqvuvsg9nXxnog97PUtfV7oPp+hbtWpV+/G6s+h3NX78+Nr77Qye8bG9PR3Pxd5S2iKV1N0TWt9Vevz2ZXb8f+1RzcO+7gmdP39+bSseVY+ampodrVu3jmlbGzduzD4qVR6X46UcMB990aJF8TYnz3c+ccTb5Y55+A888ED23v9Rlfzxxx/jbaYj9ejRI97eHaqyTEACVVUqmf+F07xNmjSJfZft27ePJf3FixeXzVJ8OaF7ACfhb7vttmh2r+rw6quvxioCf3P8PbGSIFUql+OlHG3ZsiWWlllCYxmV/aLSvnr++efTsGHDohVPfXt3VQwcQGILzIQJE+J23LhxtmBSxbMSKuWIiuhbb70Vp5fZl8meT2lvUTNg7yfVT/bjGkCrA4ca2RtONwoqoY899pgBVIVgCJVyRgNxlrM5oDNgwIA40SzVh5PQnH4eO3Zsmj59eqM21Vd+li5dGismmzdvTjU1NdG2TSoKQ6jUCNj3+Mwzz8TS2v333x/9RLdt25Z9Vvq3DRs2xF7iuXPnpgULFtROmFJxsfzOCw72f1566aVp2bJlsf9aKhL3hEqNjLZNN910U4y/tNG4dkWrKvZ/du3aNc2cOTO1bNky+4yKivZL/JtAOzRan9n/U0VlJVRqZOz1WrlyZcxpJ2gw9cbXhtq6dWvM3r/xxhtjbj4VUANo8c2aNSu6UtBfmOV3A6iKzBAqlQFaEC1cuDA98sgj0XydvaKbNm3KPqtqQ3W8S5cucXCN64knnogtHCquX375JQInY37ZbrFkyRJXRVR4hlCpTDC5iBDKEtxXX32VzjzzzGjFY1W0ejAj//bbb489gEzZYtLU3k7MUuUqTTzixQf9hDms2KxZs+yzUnEZQqUyc95556VPP/00ekAyDpNWTizXq7h4ocH8b154EEhmz54dL0Bo6aXiYkQrAxmuvPLKWP1YvXp1/L1L1cIQKpWhpk2bphEjRkT4ZBn2wgsvTHfffXc0u1exLF++PKqezLkfNGhQWrNmTbr66quzz6qIeNHxwgsvpA4dOkT1k97BdMtgX7hUTQyhUhmjMsYTFE9YjGlklOX48ePTH3/8kd1Dlerrr7+OPYC8wGjRokVUvydPnpyOOeaY7B4qos8//zxdfvnlUQHl0Nm6detS3759s89K1cUQKlWAIUOGxMz1hx9+OCbm0C+QwGIYrTzM3L/nnnuiCvbRRx/F8jv9P88666zsHioihg3w98vJd3oCf/zxx2nSpEnpqKOOyu4hVR/7hEoVhiX5J598Mk2cODGewB588MF05513piOOOCK7h8rRt99+mx5//PEYvUg3hOHDh0c17NBDrQUUGU+x9P9lwtXff/8dIzcZu+rvXTKEShWLedLMD586dWpq3rx5uvfee6O903HHHZfdQ+WAZfannnoqDh61bds2jRw5Mirbhx12WHYPFdUHH3wQBwypelL9HjVqlPs+pTp8KSZVKCYsMfbzm2++Sffdd1+0dSHkDB06NH3yySfZvdQYGLk4Z86c1KdPn3TOOeektWvXphdffDG2VNxyyy0G0ILj7++qq65KF110UTr22GPTqlWr4oWIAVT6N0OoVOF4kmNpl96i7DHjtDU9B7t3756mTZsWe9GUj40bN6ZHH300tWnTJl133XXphBNOSO+//35UxK6//nrDZ8GtX78+3XDDDdFmjebz77zzTpo3b17q2LFjdg9JdbkcLxUQy39URl955ZX0zz//xClcRkBSmaEpvhoOIX/GjBlR6aLidcopp0R/Vx5zKtMqvg0bNqRx48ZFb1cq3xwepPenpD0zhEoFxvzpl156KSqi7733XhyIoVJz7bXXGkgPAI8r4zQ5cDJ//vy0ffv2WIKnAjpmzBj3fFYJwid7fGmhxojNsWPHpmuuuSb7rKT6uBwvFRg9J4cNG5befffdWK7n4NLixYtjKguBic+xd9FWT/UjcNBQnJDRsmXLONlO+Hzuuedi3CaPL3O/6VRw+umnp6effjr9+uuv2VerSNheccUVV8Tv+bPPPosXeuwDNYBK+8ZKqFSFaJj9xhtvxHI9T6hMaGJqzyWXXBJzy2mSX+2VPKqd7OfkWrBgQfT0PProo2OaEWHjsssu221j+c2bN8feXLZD8M8rDek5ONauXbvsHqpEvOAgbNIajf8X+Fvh98oBJEn7xxAqVbmtW7emt99+O5qmM0KQih89RznZ3atXr1i2Z59b0Ztq00R+6dKlsW2Bq6amJj7OAa/+/ftH6OzWrdteh3Me12effTYuHlPCCu16qEIfcsgh2b1U7jhsxu9wypQp8cJk8ODB6aGHHkpdunTJ7iFpfxlCJf0LLZ8Io+x5JIh98cUXsXeUJ93zzz8/xkxy+p5qaaX2JGVkJuMSOcC1YsWKuCUoEjAJmhdccEHq169fVIcPdIwmB8PY8kB1lBGsPG4s2d98883pxBNPzO6lcsLvrDTPffbs2enkk09Od9xxR1x0PJDUMAyhkvZo06ZN6cMPP0zLli2L9k+Eth9++CGqeRx0IpwyRpTl5lNPPbX2onVUYyFEfP/997FP88svv4xgTcjk++dj7OHk+ycQ0k6HcE3Fl5/lyCOPzP4rDY8+oUxMmj59elTVWNa/9dZbo9LKlgg1Ln4/HDLiIN93330XW1NoMs9JdyccSQ3PECppnxFMV65cGYGOUErQ44AGQa+EMEcYbdWqVVwEVpp1c1Fd5Dr88MNjn2WTJk32WHFk3CHL27///nscoiLAlS76MXJLdZO3GY/JEupff/0VX0t1k7nsfC+EZYJmKTg31qhTvjcqbBxq4nQ91TUqoyz19ujRw+X6HPH/MoME2O+5ZMmSaKt11113xe/DFlvSwWUIldRgCIkEUwIhlaSff/453ueJnjGjhEWqkNweyMlxtgeUgiwVV5a1CblsD6BPJ6GXiVK8fdJJJ5V1KyqqtLNmzYrqKJValn7p6Uqze7Y+GEgb3k8//ZRefvnluBYtWhQvhEovAqiIW/WU8mEIldRoqFyChu+lyiW3vE/4qjvmkKolS9Z8rKjBjP23VOUIpVSaCdADBw6Mvq4cEqNyrH3H9gxm+L/++utRgSbsH3/88fG4Dho0KA7hUY2XlC9DqCSVIbYUvPbaaxGa6O2Kvn37xil7bjt16hQf0+7R7WDhwoURPDlox/unnXZa9PckeBLqHdYgNS5DqCSVObYvMIOcU/YsH7PVgWEDLB1zXXzxxbHvtZpDFVs/Su215s6dm1avXh3VTaqcHPziEBgH0SSVD0OoJFUQ/snmFDfVPS6GDbDHkYNg9DTt3bt36tmzZ/R2ZbJTEbH3mOV1msYzDYyBAhxII4TzsxM6eRy6du3aaIfPJNXPECpJFW79+vVxspswRihds2ZNhFVOdzPTnItA1qFDh3TGGWek5s2bZ19Z3pjHT+cFfh76utImjAonE7/omMABNEIngZPQzc94MFtsSWpYhlBJKhg6EBDWqBRSMeQgDkGVCiKHuginhFGWp1u3bh09XukuQDcB2kXlFeQYhblly5bYr0nYZB8sgZM+tBzS4nvmoBptttjPyT5YOgaUAichVFLlMoRKUhXgn3pCHsGOiyV9KooEPt7ftm1bds8UQZS2V5wg52JvJbe0MmrWrFntEjfv77oPlf/On3/+GW9zKp2tAqUerwRO3udixj5dEEpatGgRbbXo50oYJiBTue3YsWME0L0dlyqpchhCJUkRDAmJVCTp61oKjNxysfzN7W+//Rb3r9tWa3cIqARHWmrRWosQS4spqqylkEtFlkose1cJoJKqiyFUkiRJuXMshCRJknJnCJUkSVLuDKGSJEnKnSFUkiRJuTOESpIkKXeGUEmSJOXOECpJkqTcGUIlSZKUO0OoJEmScmcIlSRJUu4MoZIkScqdIVSSJEm5M4RKkiQpd4ZQSZIk5c4QKkmSpNwZQiVJkpQ7Q6gkSZJyZwiVJElS7gyhkiRJyp0hVJIkSbkzhEqSJCl3hlBJkiTlzhAqSZKk3BlCJUmSlDtDqCRJknJnCJUkSVLuDKGSJEnKnSFUkiRJuTOESpIkKWcp/Q9l/iyIrwBT5gAAAABJRU5ErkJggg==;" parent="1" vertex="1">
          <mxGeometry x="660" y="240" width="249.26" height="240" as="geometry" />
        </mxCell>
        <mxCell id="Lu9yphzNMlrqCygTWZGL-39" value="Assuming APB as interface" style="shape=note;whiteSpace=wrap;html=1;backgroundOutline=1;darkOpacity=0.05;" parent="1" vertex="1">
          <mxGeometry x="630" y="520" width="80" height="100" as="geometry" />
        </mxCell>
        <mxCell id="Lu9yphzNMlrqCygTWZGL-40" value="How to implement this?" style="shape=note;whiteSpace=wrap;html=1;backgroundOutline=1;darkOpacity=0.05;" parent="1" vertex="1">
          <mxGeometry x="670" y="80" width="80" height="100" as="geometry" />
        </mxCell>
        <mxCell id="Lu9yphzNMlrqCygTWZGL-41" value="How many bits on counter" style="shape=note;whiteSpace=wrap;html=1;backgroundOutline=1;darkOpacity=0.05;" parent="1" vertex="1">
          <mxGeometry x="100" y="500" width="80" height="100" as="geometry" />
        </mxCell>
        <mxCell id="Lu9yphzNMlrqCygTWZGL-42" value="T-FlipFlop" style="shape=note;whiteSpace=wrap;html=1;backgroundOutline=1;darkOpacity=0.05;size=13;" parent="1" vertex="1">
          <mxGeometry x="-50" y="510" width="80" height="60" as="geometry" />
        </mxCell>
        <mxCell id="gVtXrnHKsEPrwx9l8qOF-4" value="" style="endArrow=none;html=1;rounded=0;exitX=1;exitY=0.5;exitDx=0;exitDy=0;" edge="1" parent="1">
          <mxGeometry x="-0.8182" y="10" width="50" height="50" relative="1" as="geometry">
            <mxPoint x="450" y="260" as="sourcePoint" />
            <mxPoint x="600" y="260" as="targetPoint" />
            <mxPoint as="offset" />
          </mxGeometry>
        </mxCell>
        <mxCell id="gVtXrnHKsEPrwx9l8qOF-5" value="enable&lt;br&gt;CDC" style="whiteSpace=wrap;html=1;aspect=fixed;fillColor=#FFFFFF;" vertex="1" parent="1">
          <mxGeometry x="490" y="230" width="60" height="60" as="geometry" />
        </mxCell>
        <mxCell id="gVtXrnHKsEPrwx9l8qOF-6" value="" style="endArrow=none;html=1;rounded=0;exitX=1;exitY=0.5;exitDx=0;exitDy=0;" edge="1" parent="1">
          <mxGeometry x="-0.8182" y="10" width="50" height="50" relative="1" as="geometry">
            <mxPoint x="450" y="330" as="sourcePoint" />
            <mxPoint x="600" y="330" as="targetPoint" />
            <mxPoint as="offset" />
          </mxGeometry>
        </mxCell>
        <mxCell id="gVtXrnHKsEPrwx9l8qOF-7" value="ready&lt;br&gt;CDC" style="whiteSpace=wrap;html=1;aspect=fixed;fillColor=#FFFFFF;" vertex="1" parent="1">
          <mxGeometry x="490" y="300" width="60" height="60" as="geometry" />
        </mxCell>
        <mxCell id="gVtXrnHKsEPrwx9l8qOF-13" value="" style="endArrow=none;html=1;rounded=0;entryX=0;entryY=0.5;entryDx=0;entryDy=0;" edge="1" parent="1" target="gVtXrnHKsEPrwx9l8qOF-12">
          <mxGeometry x="-0.8182" y="10" width="50" height="50" relative="1" as="geometry">
            <mxPoint x="-40" y="300" as="sourcePoint" />
            <mxPoint x="60" y="300" as="targetPoint" />
            <mxPoint as="offset" />
          </mxGeometry>
        </mxCell>
        <mxCell id="gVtXrnHKsEPrwx9l8qOF-12" value="CDC" style="whiteSpace=wrap;html=1;aspect=fixed;fillColor=#FFFFFF;" vertex="1" parent="1">
          <mxGeometry x="10" y="280" width="40" height="40" as="geometry" />
        </mxCell>
        <mxCell id="gVtXrnHKsEPrwx9l8qOF-14" value="" style="endArrow=none;html=1;rounded=0;exitX=1;exitY=0.5;exitDx=0;exitDy=0;" edge="1" parent="1">
          <mxGeometry x="-0.8182" y="10" width="50" height="50" relative="1" as="geometry">
            <mxPoint x="450" y="400" as="sourcePoint" />
            <mxPoint x="600" y="400" as="targetPoint" />
            <mxPoint as="offset" />
          </mxGeometry>
        </mxCell>
        <mxCell id="gVtXrnHKsEPrwx9l8qOF-15" value="ack&lt;br&gt;CDC" style="whiteSpace=wrap;html=1;aspect=fixed;fillColor=#FFFFFF;" vertex="1" parent="1">
          <mxGeometry x="490" y="370" width="60" height="60" as="geometry" />
        </mxCell>
      </root>
    </mxGraphModel>
  </diagram>
</mxfile>
